<svg width="1728" height="927" viewBox="0 0 1728 927" fill="none" xmlns="http://www.w3.org/2000/svg">
<rect x="-3" width="1731" height="927" fill="#10B28A"/>
<mask id="mask0_124_8756" style="mask-type:alpha" maskUnits="userSpaceOnUse" x="-3" y="0" width="1731" height="927">
<rect x="-3" width="1731" height="927" fill="#12141D"/>
</mask>
<g mask="url(#mask0_124_8756)">
<path opacity="0.7" d="M1968.26 109.806C1968.26 391.159 1744.67 619.207 1468.89 619.207C1193.12 619.207 969.524 391.159 969.524 109.806C969.524 -171.548 1193.12 -399.596 1468.89 -399.596C1744.67 -399.596 1968.26 -171.548 1968.26 109.806Z" stroke="white" stroke-width="2"/>
<path opacity="0.7" d="M1891.28 109.806C1891.28 347.793 1702.15 540.685 1468.89 540.685C1235.63 540.685 1046.5 347.793 1046.5 109.806C1046.5 -128.18 1235.63 -321.072 1468.89 -321.072C1702.15 -321.072 1891.28 -128.18 1891.28 109.806Z" stroke="white" stroke-width="2"/>
<path opacity="0.7" d="M1814.3 109.805C1814.3 304.424 1659.64 462.16 1468.89 462.16C1278.15 462.16 1123.48 304.424 1123.48 109.805C1123.48 -84.8139 1278.15 -242.55 1468.89 -242.55C1659.64 -242.55 1814.3 -84.8139 1814.3 109.805Z" stroke="white" stroke-width="2"/>
</g>
</svg>
