<svg width="114" height="19" viewBox="0 0 114 19" fill="none" xmlns="http://www.w3.org/2000/svg">
<path fill-rule="evenodd" clip-rule="evenodd" d="M10.0381 0.51308L12.7217 6.05681L18.7207 6.946C18.876 6.96946 19.0048 7.0803 19.0532 7.23209C19.1016 7.38387 19.0611 7.5504 18.9489 7.66192L14.6088 11.9762L15.6335 18.0692C15.6604 18.2263 15.5971 18.3853 15.4703 18.4792C15.3434 18.5731 15.175 18.5856 15.0361 18.5113L9.67008 15.6351L4.30407 18.5121C4.16526 18.5867 3.9968 18.5744 3.86984 18.4806C3.74288 18.3867 3.67958 18.2276 3.70667 18.0704L4.73138 11.9762L0.390072 7.66192C0.277791 7.5504 0.237373 7.38387 0.285747 7.23209C0.334121 7.0803 0.462937 6.96946 0.618239 6.946L6.61723 6.05681L9.30207 0.51308C9.37039 0.369733 9.51334 0.278687 9.67008 0.278687C9.82683 0.278687 9.96977 0.369733 10.0381 0.51308Z" fill="#FFC947"/>
<path fill-rule="evenodd" clip-rule="evenodd" d="M33.5479 0.51308L36.2315 6.05681L42.2305 6.946C42.3858 6.96946 42.5146 7.0803 42.563 7.23209C42.6113 7.38387 42.5709 7.5504 42.4586 7.66192L38.1186 11.9762L39.1433 18.0692C39.1702 18.2263 39.1069 18.3853 38.98 18.4792C38.8531 18.5731 38.6848 18.5856 38.5459 18.5113L33.1798 15.6351L27.8138 18.5121C27.675 18.5867 27.5066 18.5744 27.3796 18.4806C27.2526 18.3867 27.1893 18.2276 27.2164 18.0704L28.2411 11.9762L23.8998 7.66192C23.7876 7.5504 23.7471 7.38387 23.7955 7.23209C23.8439 7.0803 23.9727 6.96946 24.128 6.946L30.127 6.05681L32.8118 0.51308C32.8802 0.369733 33.0231 0.278687 33.1798 0.278687C33.3366 0.278687 33.4795 0.369733 33.5479 0.51308Z" fill="#FFC947"/>
<path fill-rule="evenodd" clip-rule="evenodd" d="M57.0586 0.51308L59.7422 6.05681L65.7412 6.946C65.8965 6.96946 66.0253 7.0803 66.0737 7.23209C66.1221 7.38387 66.0817 7.5504 65.9694 7.66192L61.6293 11.9762L62.654 18.0692C62.6809 18.2263 62.6176 18.3853 62.4908 18.4792C62.3639 18.5731 62.1955 18.5856 62.0566 18.5113L56.6906 15.6351L51.3246 18.5121C51.1858 18.5867 51.0173 18.5744 50.8903 18.4806C50.7634 18.3867 50.7001 18.2276 50.7272 18.0704L51.7519 11.9762L47.4106 7.66192C47.2983 7.5504 47.2579 7.38387 47.3063 7.23209C47.3546 7.0803 47.4834 6.96946 47.6387 6.946L53.6377 6.05681L56.3226 0.51308C56.3909 0.369733 56.5339 0.278687 56.6906 0.278687C56.8473 0.278687 56.9903 0.369733 57.0586 0.51308Z" fill="#FFC947"/>
<path fill-rule="evenodd" clip-rule="evenodd" d="M80.5674 0.51308L83.251 6.05681L89.25 6.946C89.4053 6.96946 89.5341 7.0803 89.5825 7.23209C89.6309 7.38387 89.5904 7.5504 89.4782 7.66192L85.1381 11.9762L86.1628 18.0692C86.1897 18.2263 86.1264 18.3853 85.9995 18.4792C85.8727 18.5731 85.7043 18.5856 85.5654 18.5113L80.1994 15.6351L74.8334 18.5121C74.6946 18.5867 74.5261 18.5744 74.3991 18.4806C74.2722 18.3867 74.2089 18.2276 74.236 18.0704L75.2607 11.9762L70.9194 7.66192C70.8071 7.5504 70.7667 7.38387 70.815 7.23209C70.8634 7.0803 70.9922 6.96946 71.1475 6.946L77.1465 6.05681L79.8314 0.51308C79.8997 0.369733 80.0426 0.278687 80.1994 0.278687C80.3561 0.278687 80.4991 0.369733 80.5674 0.51308Z" fill="#FFC947"/>
<path fill-rule="evenodd" clip-rule="evenodd" d="M104.076 0.51308L106.76 6.05681L112.759 6.946C112.914 6.96946 113.043 7.0803 113.091 7.23209C113.14 7.38387 113.099 7.5504 112.987 7.66192L108.647 11.9762L109.672 18.0692C109.699 18.2263 109.635 18.3853 109.508 18.4792C109.381 18.5731 109.213 18.5856 109.074 18.5113L103.708 15.6351L98.3422 18.5121C98.2034 18.5867 98.0349 18.5744 97.9079 18.4806C97.781 18.3867 97.7177 18.2276 97.7448 18.0704L98.7695 11.9762L94.4282 7.66192C94.3159 7.5504 94.2755 7.38387 94.3238 7.23209C94.3722 7.0803 94.501 6.96946 94.6563 6.946L100.655 6.05681L103.34 0.51308C103.408 0.369733 103.551 0.278687 103.708 0.278687C103.865 0.278687 104.008 0.369733 104.076 0.51308Z" fill="#FFC947"/>
</svg>
