<svg width="26" height="26" viewBox="0 0 26 26" fill="none" xmlns="http://www.w3.org/2000/svg">
<path d="M1.88208 3.85976C1.88208 2.45079 3.00182 1.30859 4.38309 1.30859H8.4838C9.02205 1.30859 9.49992 1.65993 9.67013 2.1808L11.5432 7.91256C11.7399 8.51478 11.4727 9.17296 10.9161 9.45685L8.09335 10.8965C9.47171 14.015 11.9346 16.5273 14.9918 17.9333L16.4031 15.0539C16.6814 14.4862 17.3267 14.2135 17.917 14.4143L23.5361 16.3249C24.0467 16.4985 24.3912 16.9859 24.3912 17.535V21.7179C24.3912 23.1269 23.2714 24.2691 21.8902 24.2691H20.6397C10.2801 24.2691 1.88208 15.7026 1.88208 5.13534V3.85976Z" stroke="#10B28A" stroke-width="2" stroke-linecap="round" stroke-linejoin="round"/>
</svg>
