<svg width="25" height="23" viewBox="0 0 25 23" fill="none" xmlns="http://www.w3.org/2000/svg">
<ellipse cx="12.6578" cy="11.6478" rx="11.732" ry="10.6683" fill="#14B082"/>
<path d="M18.5738 7.6342C18.4861 7.55379 18.3817 7.48997 18.2667 7.44641C18.1518 7.40286 18.0284 7.38043 17.9039 7.38043C17.7794 7.38043 17.656 7.40286 17.5411 7.44641C17.4261 7.48997 17.3217 7.55379 17.234 7.6342L10.2052 14.0343L7.25217 11.3404C7.16111 11.2604 7.05361 11.1975 6.93581 11.1553C6.81802 11.1131 6.69223 11.0924 6.56563 11.0944C6.43904 11.0964 6.31412 11.121 6.198 11.1669C6.08188 11.2128 5.97683 11.2791 5.88887 11.3619C5.8009 11.4447 5.73173 11.5424 5.68531 11.6496C5.63888 11.7567 5.61612 11.8711 5.61831 11.9862C5.6205 12.1013 5.6476 12.2149 5.69807 12.3205C5.74854 12.4261 5.82139 12.5216 5.91245 12.6016L9.53536 15.896C9.62307 15.9764 9.72742 16.0402 9.84239 16.0838C9.95736 16.1273 10.0807 16.1498 10.2052 16.1498C10.3298 16.1498 10.4531 16.1273 10.5681 16.0838C10.683 16.0402 10.7874 15.9764 10.8751 15.896L18.5738 8.89535C18.6695 8.81501 18.746 8.71751 18.7982 8.60898C18.8505 8.50046 18.8775 8.38326 18.8775 8.26478C18.8775 8.1463 18.8505 8.0291 18.7982 7.92057C18.746 7.81205 18.6695 7.71454 18.5738 7.6342Z" fill="white"/>
</svg>
