<svg width="60" height="59" viewBox="0 0 60 59" fill="none" xmlns="http://www.w3.org/2000/svg">
<ellipse opacity="0.2" cx="30.2502" cy="29.7381" rx="29.387" ry="28.8467" fill="#45C646"/>
<path d="M42.2563 28.8316C39.3179 28.8283 36.5008 27.681 34.423 25.6415C32.3453 23.6019 31.1765 20.8366 31.1732 17.9523C31.1732 17.7118 31.0759 17.4812 30.9027 17.3112C30.7295 17.1412 30.4945 17.0457 30.2496 17.0457C30.0046 17.0457 29.7697 17.1412 29.5965 17.3112C29.4233 17.4812 29.326 17.7118 29.326 17.9523C29.3227 20.8366 28.1539 23.6019 26.0761 25.6415C23.9984 27.681 21.1813 28.8283 18.2429 28.8316C17.998 28.8316 17.7631 28.9271 17.5898 29.0971C17.4166 29.2672 17.3193 29.4978 17.3193 29.7382C17.3193 29.9787 17.4166 30.2093 17.5898 30.3793C17.7631 30.5493 17.998 30.6448 18.2429 30.6448C21.1813 30.6481 23.9984 31.7954 26.0761 33.8349C28.1539 35.8745 29.3227 38.6398 29.326 41.5242C29.326 41.7646 29.4233 41.9952 29.5965 42.1652C29.7697 42.3353 30.0046 42.4308 30.2496 42.4308C30.4945 42.4308 30.7295 42.3353 30.9027 42.1652C31.0759 41.9952 31.1732 41.7646 31.1732 41.5242C31.1765 38.6398 32.3453 35.8745 34.423 33.8349C36.5008 31.7954 39.3179 30.6481 42.2563 30.6448C42.5012 30.6448 42.7361 30.5493 42.9093 30.3793C43.0826 30.2093 43.1799 29.9787 43.1799 29.7382C43.1799 29.4978 43.0826 29.2672 42.9093 29.0971C42.7361 28.9271 42.5012 28.8316 42.2563 28.8316ZM30.2496 36.8403C29.5965 35.2373 28.6184 33.7811 27.3747 32.5603C26.131 31.3394 24.6476 30.3793 23.0145 29.7382C24.6476 29.0971 26.131 28.137 27.3747 26.9161C28.6184 25.6953 29.5965 24.2392 30.2496 22.6361C30.9027 24.2392 31.8808 25.6953 33.1245 26.9161C34.3682 28.137 35.8516 29.0971 37.4847 29.7382C35.8516 30.3793 34.3682 31.3394 33.1245 32.5603C31.8808 33.7811 30.9027 35.2373 30.2496 36.8403Z" fill="#45C646"/>
</svg>
