<svg width="58" height="55" viewBox="0 0 58 55" fill="none" xmlns="http://www.w3.org/2000/svg">
<ellipse cx="28.563" cy="27.4116" rx="28.563" ry="27.2932" fill="#008EFF"/>
<path d="M21.3276 20.2886L21.3271 31.9605C21.3271 34.3723 23.2913 36.3457 25.7746 36.4997L26.0876 36.5094L34.4935 36.5107C34.101 37.5701 33.0433 38.329 31.8002 38.329H25.1355C21.9805 38.329 19.4229 35.885 19.4229 32.8703V22.8628C19.4229 21.6742 20.2179 20.6631 21.3276 20.2886ZM35.6086 16.4944C37.1861 16.4944 38.4649 17.7163 38.4649 19.2237V31.9605C38.4649 33.4679 37.1861 34.6899 35.6086 34.6899H26.0876C24.5101 34.6899 23.2313 33.4679 23.2313 31.9605V19.2237C23.2313 17.7163 24.5101 16.4944 26.0876 16.4944H35.6086ZM35.6086 18.3139H26.0876C25.5617 18.3139 25.1355 18.7213 25.1355 19.2237V31.9605C25.1355 32.463 25.5617 32.8703 26.0876 32.8703H35.6086C36.1344 32.8703 36.5607 32.463 36.5607 31.9605V19.2237C36.5607 18.7213 36.1344 18.3139 35.6086 18.3139Z" fill="white"/>
</svg>
