<svg width="60" height="59" viewBox="0 0 60 59" fill="none" xmlns="http://www.w3.org/2000/svg">
<ellipse opacity="0.2" cx="30.2502" cy="29.2796" rx="29.387" ry="28.8467" fill="#008EFF"/>
<path d="M40.5388 21.0889L35.1339 17.9055C35.1096 17.8914 35.0826 17.8843 35.0565 17.8728C34.6989 17.6624 34.2367 17.7004 33.9404 18.0117L26.3564 25.9885L22.1766 22.2269C21.901 21.9793 21.4974 21.9254 21.165 22.0881L18.9932 23.1536C18.7382 23.2783 18.559 23.5126 18.5094 23.7876C18.4599 24.0626 18.5436 24.3438 18.7373 24.5472L23.2315 29.2744L18.7373 34.0016C18.5436 34.205 18.459 34.4871 18.5094 34.7612C18.5599 35.0353 18.7391 35.2705 18.9932 35.3952L21.165 36.4616C21.2929 36.5244 21.4308 36.5545 21.5677 36.5545C21.774 36.5545 21.9794 36.4846 22.1451 36.3493L26.5402 32.7539L33.9404 40.5371C34.1178 40.7237 34.3583 40.8183 34.5989 40.8183C34.7637 40.8183 34.9223 40.7591 35.0673 40.6707C35.0889 40.6601 35.1123 40.6556 35.133 40.6433L40.5379 37.4599C40.8091 37.3008 40.9757 37.0125 40.9757 36.7021V21.8467C40.9757 21.5363 40.8091 21.248 40.5388 21.0889ZM21.4434 34.6206L20.8768 34.3429L24.4629 30.5707L25.3079 31.4594L21.4434 34.6206ZM33.7692 37.765L20.8768 24.2059L21.4163 23.9415L33.7692 35.0574V37.765ZM33.7692 32.6576L30.3831 29.6104L33.7692 26.8409V32.6576ZM33.7692 24.5383L29.0426 28.4043L27.6851 27.1823L33.7692 20.7838V24.5383ZM39.1741 36.2008L35.5708 38.323V20.2249L39.1741 22.3472V36.2008Z" fill="#008EFF"/>
</svg>
