<svg width="58" height="56" viewBox="0 0 58 56" fill="none" xmlns="http://www.w3.org/2000/svg">
<ellipse cx="28.563" cy="27.813" rx="28.563" ry="27.2932" fill="#FABB18"/>
<path d="M40.2331 26.9554C37.3771 26.9523 34.639 25.8668 32.6195 23.9371C30.6 22.0074 29.464 19.391 29.4607 16.662C29.4607 16.4345 29.3661 16.2163 29.1978 16.0554C29.0294 15.8946 28.8011 15.8042 28.563 15.8042C28.3249 15.8042 28.0966 15.8946 27.9283 16.0554C27.7599 16.2163 27.6653 16.4345 27.6653 16.662C27.6621 19.391 26.5261 22.0074 24.5066 23.9371C22.4871 25.8668 19.749 26.9523 16.893 26.9554C16.6549 26.9554 16.4266 27.0458 16.2582 27.2067C16.0899 27.3675 15.9953 27.5857 15.9953 27.8132C15.9953 28.0407 16.0899 28.2589 16.2582 28.4198C16.4266 28.5806 16.6549 28.671 16.893 28.671C19.749 28.6741 22.4871 29.7596 24.5066 31.6893C26.5261 33.619 27.6621 36.2354 27.6653 38.9644C27.6653 39.1919 27.7599 39.4101 27.9283 39.571C28.0966 39.7319 28.3249 39.8222 28.563 39.8222C28.8011 39.8222 29.0294 39.7319 29.1978 39.571C29.3661 39.4101 29.4607 39.1919 29.4607 38.9644C29.464 36.2354 30.6 33.619 32.6195 31.6893C34.639 29.7596 37.3771 28.6741 40.2331 28.671C40.4711 28.671 40.6995 28.5806 40.8678 28.4198C41.0362 28.2589 41.1308 28.0407 41.1308 27.8132C41.1308 27.5857 41.0362 27.3675 40.8678 27.2067C40.6995 27.0458 40.4711 26.9554 40.2331 26.9554ZM28.563 34.5329C27.9282 33.0161 26.9775 31.6384 25.7687 30.4833C24.5599 29.3282 23.1181 28.4198 21.5308 27.8132C23.1181 27.2066 24.5599 26.2982 25.7687 25.1431C26.9775 23.988 27.9282 22.6103 28.563 21.0936C29.1978 22.6103 30.1485 23.988 31.3573 25.1431C32.5662 26.2982 34.008 27.2066 35.5953 27.8132C34.008 28.4198 32.5662 29.3282 31.3573 30.4833C30.1485 31.6384 29.1978 33.0161 28.563 34.5329Z" fill="white"/>
</svg>
