<svg width="60" height="58" viewBox="0 0 60 58" fill="none" xmlns="http://www.w3.org/2000/svg">
<ellipse opacity="0.2" cx="30.2493" cy="29.1187" rx="29.387" ry="28.8467" fill="#F23936"/>
<path d="M22.8054 21.5903L22.8048 33.9266C22.8048 36.4756 24.8257 38.5613 27.3806 38.7241L27.7027 38.7343L36.351 38.7357C35.9472 39.8554 34.8591 40.6575 33.58 40.6575H26.7231C23.4771 40.6575 20.8457 38.0744 20.8457 34.8881V24.311C20.8457 23.0548 21.6637 21.9861 22.8054 21.5903ZM37.4983 17.5801C39.1213 17.5801 40.437 18.8716 40.437 20.4648V33.9266C40.437 35.5197 39.1213 36.8112 37.4983 36.8112H27.7027C26.0797 36.8112 24.764 35.5197 24.764 33.9266V20.4648C24.764 18.8716 26.0797 17.5801 27.7027 17.5801H37.4983ZM37.4983 19.5032H27.7027C27.1617 19.5032 26.7231 19.9337 26.7231 20.4648V33.9266C26.7231 34.4576 27.1617 34.8881 27.7027 34.8881H37.4983C38.0393 34.8881 38.4779 34.4576 38.4779 33.9266V20.4648C38.4779 19.9337 38.0393 19.5032 37.4983 19.5032Z" fill="#F23936"/>
</svg>
