<svg width="35" height="35" viewBox="0 0 35 35" fill="none" xmlns="http://www.w3.org/2000/svg">
<path d="M4.55237 16.0843H7.28873C8.84266 16.0843 10.1024 17.3692 10.1024 18.9543V20.3893C10.1024 21.9744 11.3621 23.2594 12.916 23.2594C14.4699 23.2594 15.7296 24.5444 15.7296 26.1295V30.3557M11.5092 5.9465V8.19158C11.5092 10.1729 13.0838 11.7792 15.0262 11.7792H15.7296C17.2836 11.7792 18.5433 13.0641 18.5433 14.6492C18.5433 16.2343 19.803 17.5193 21.3569 17.5193C22.9108 17.5193 24.1705 16.2343 24.1705 14.6492C24.1705 13.0641 25.4303 11.7792 26.9842 11.7792L28.4817 11.7792M21.3569 29.6997V26.1295C21.3569 24.5444 22.6166 23.2594 24.1705 23.2594H28.4817M29.7978 17.5193C29.7978 24.6522 24.1291 30.4346 17.1365 30.4346C10.1438 30.4346 4.4751 24.6522 4.4751 17.5193C4.4751 10.3864 10.1438 4.604 17.1365 4.604C24.1291 4.604 29.7978 10.3864 29.7978 17.5193Z" stroke="#10B28A" stroke-width="2" stroke-linecap="round" stroke-linejoin="round"/>
</svg>
