<svg width="1267" height="48" viewBox="0 0 1267 48" fill="none" xmlns="http://www.w3.org/2000/svg">
<path d="M48.2139 29.3885V19.4705H50.4376C52.1066 19.4705 53.5284 18.8554 54.7032 17.6253C55.878 16.3951 56.4654 14.9151 56.4654 13.1852V9.36508C56.4654 7.56792 55.9479 6.0879 54.913 4.92503C53.8035 3.7045 52.3117 3.09424 50.4376 3.09424H44.3818V29.3885H48.2139ZM50.5355 15.5494H48.2139V7.14506H50.5355C51.2068 7.14506 51.7406 7.35408 52.1369 7.77214C52.5331 8.19019 52.7312 8.7452 52.7312 9.43715V13.2717C52.7312 13.8964 52.5191 14.4322 52.0949 14.8791C51.6707 15.326 51.1509 15.5494 50.5355 15.5494ZM62.5742 29.3885L63.5112 23.3483H67.5251L68.4341 29.3885H72.462L68.1964 3.09424H62.8958L58.5743 29.3885H62.5742ZM66.9517 19.4849H64.0986L65.5251 9.12001L66.9517 19.4849ZM81.0462 29.3885V19.4705H83.2699C84.9389 19.4705 86.3607 18.8554 87.5355 17.6253C88.7103 16.3951 89.2977 14.9151 89.2977 13.1852V9.36508C89.2977 7.56792 88.7802 6.0879 87.7453 4.92503C86.6358 3.7045 85.144 3.09424 83.2699 3.09424H77.2141V29.3885H81.0462ZM83.3678 15.5494H81.0462V7.14506H83.3678C84.0391 7.14506 84.5729 7.35408 84.9692 7.77214C85.3654 8.19019 85.5635 8.7452 85.5635 9.43715V13.2717C85.5635 13.8964 85.3514 14.4322 84.9272 14.8791C84.503 15.326 83.9832 15.5494 83.3678 15.5494ZM104.819 29.3885V25.4242H97.7141V18.2307H102.903V14.252H97.7141V7.05856H104.819V3.09424H93.882V29.3885H104.819ZM112.816 29.3885V19.4705H115.025C115.147 19.4705 115.263 19.4657 115.375 19.4561L117.725 29.3885H121.878L119.025 17.8992C120.396 16.621 121.081 15.0497 121.081 13.1852V9.36508C121.081 7.47181 120.638 5.9918 119.752 4.92503C118.755 3.7045 117.184 3.09424 115.039 3.09424H108.984V29.3885H112.816ZM115.137 15.5494H112.816V7.14506H115.137C116.601 7.14506 117.333 7.90909 117.333 9.43715V13.2717C117.333 13.8964 117.121 14.4322 116.697 14.8791C116.272 15.326 115.753 15.5494 115.137 15.5494ZM137.679 29.3885V25.453H130.602L137.679 7.05856V3.09424H126.463V7.05856H133.553L126.463 25.453V29.3885H137.679Z" fill="white"/>
<path d="M47.2223 42.8551V42.277H44.4455V36.4966H43.7671V42.8551H47.2223ZM49.782 43.0042C50.2282 43.0042 50.6142 42.9125 50.9398 42.7292C51.2654 42.5458 51.5277 42.2926 51.7267 41.9694L51.2383 41.6337C51.0935 41.8823 50.9021 42.0766 50.6639 42.2164C50.4257 42.3563 50.1257 42.4262 49.7639 42.4262C49.3177 42.4262 48.965 42.2677 48.7057 41.9507C48.4464 41.6337 48.3047 41.2515 48.2805 40.804H51.7629C51.7689 40.7418 51.7719 40.6517 51.7719 40.5336C51.7719 40.1234 51.6845 39.752 51.5096 39.4195C51.3347 39.0869 51.0935 38.8243 50.786 38.6317C50.4785 38.439 50.1348 38.3426 49.7549 38.3426C49.3509 38.3426 48.9906 38.4421 48.674 38.641C48.3574 38.8399 48.1102 39.1165 47.9323 39.4707C47.7544 39.825 47.6655 40.2259 47.6655 40.6734C47.6655 41.1209 47.7559 41.5218 47.9368 41.8761C48.1177 42.2304 48.368 42.507 48.6876 42.7059C49.0072 42.9048 49.372 43.0042 49.782 43.0042ZM51.1569 40.2819H48.3167C48.3831 39.8903 48.5413 39.5655 48.7916 39.3076C49.0418 39.0496 49.3629 38.9207 49.7549 38.9207C50.1589 38.9207 50.4785 39.0341 50.7137 39.261C50.9488 39.4878 51.0966 39.8281 51.1569 40.2819ZM54.5216 43.0042C54.8231 43.0042 55.1005 42.9343 55.3537 42.7945C55.607 42.6546 55.8211 42.4604 55.9959 42.2118V42.8551H56.611V38.4918H55.9959V39.1444C55.8211 38.8896 55.6055 38.6923 55.3492 38.5524C55.0929 38.4126 54.811 38.3426 54.5035 38.3426C54.0995 38.3426 53.7392 38.4421 53.4226 38.641C53.1061 38.8399 52.8588 39.1149 52.6809 39.4661C52.5031 39.8173 52.4141 40.2166 52.4141 40.6641C52.4141 41.1178 52.5046 41.5218 52.6855 41.8761C52.8664 42.2304 53.1166 42.507 53.4362 42.7059C53.7558 42.9048 54.1176 43.0042 54.5216 43.0042ZM54.5035 42.4262C54.2201 42.4262 53.9668 42.3516 53.7437 42.2024C53.5206 42.0533 53.3458 41.845 53.2191 41.5778C53.0925 41.3105 53.0292 41.006 53.0292 40.6641C53.0292 40.3285 53.0925 40.0286 53.2191 39.7644C53.3458 39.5003 53.5206 39.2936 53.7437 39.1444C53.9668 38.9953 54.2201 38.9207 54.5035 38.9207C54.793 38.9207 55.0507 38.9953 55.2769 39.1444C55.503 39.2936 55.6794 39.5018 55.806 39.7691C55.9326 40.0363 55.9959 40.3378 55.9959 40.6734C55.9959 41.0091 55.9326 41.3105 55.806 41.5778C55.6794 41.845 55.503 42.0533 55.2769 42.2024C55.0507 42.3516 54.793 42.4262 54.5035 42.4262ZM59.5958 43.0042C59.8973 43.0042 60.1747 42.9343 60.428 42.7945C60.6813 42.6546 60.8953 42.4604 61.0702 42.2118V42.8551H61.6852V36.0864H61.0702V39.1444C60.8953 38.8896 60.6797 38.6923 60.4235 38.5524C60.1672 38.4126 59.8853 38.3426 59.5778 38.3426C59.1737 38.3426 58.8135 38.4421 58.4969 38.641C58.1803 38.8399 57.9331 39.1149 57.7552 39.4661C57.5773 39.8173 57.4884 40.2166 57.4884 40.6641C57.4884 41.1178 57.5788 41.5218 57.7597 41.8761C57.9406 42.2304 58.1909 42.507 58.5104 42.7059C58.83 42.9048 59.1918 43.0042 59.5958 43.0042ZM59.5778 42.4262C59.2943 42.4262 59.0411 42.3516 58.818 42.2024C58.5949 42.0533 58.42 41.845 58.2934 41.5778C58.1667 41.3105 58.1034 41.006 58.1034 40.6641C58.1034 40.3285 58.1667 40.0286 58.2934 39.7644C58.42 39.5003 58.5949 39.2936 58.818 39.1444C59.0411 38.9953 59.2943 38.9207 59.5778 38.9207C59.8672 38.9207 60.125 38.9953 60.3511 39.1444C60.5772 39.2936 60.7536 39.5018 60.8802 39.7691C61.0069 40.0363 61.0702 40.3378 61.0702 40.6734C61.0702 41.0091 61.0069 41.3105 60.8802 41.5778C60.7536 41.845 60.5772 42.0533 60.3511 42.2024C60.125 42.3516 59.8672 42.4262 59.5778 42.4262ZM63.4671 37.6434C63.5998 37.6434 63.7143 37.5937 63.8108 37.4942C63.9073 37.3948 63.9555 37.2767 63.9555 37.1399C63.9555 36.997 63.9073 36.8773 63.8108 36.781C63.7143 36.6847 63.5998 36.6365 63.4671 36.6365C63.3284 36.6365 63.2123 36.6847 63.1189 36.781C63.0254 36.8773 62.9787 36.9939 62.9787 37.1306C62.9787 37.2736 63.0254 37.3948 63.1189 37.4942C63.2123 37.5937 63.3284 37.6434 63.4671 37.6434ZM63.7746 42.8551V38.4918H63.1596V42.8551H63.7746ZM65.864 42.8551V40.6734C65.864 40.1389 65.9726 39.7131 66.1897 39.3962C66.4067 39.0792 66.7324 38.9207 67.1665 38.9207C67.9142 38.9207 68.2881 39.3526 68.2881 40.2166V42.8551H68.9032V39.9369C68.9032 39.6075 68.8293 39.3216 68.6816 39.0792C68.5338 38.8368 68.3348 38.6534 68.0846 38.5291C67.8343 38.4048 67.5615 38.3426 67.266 38.3426C66.9525 38.3426 66.6766 38.4188 66.4384 38.5711C66.2002 38.7233 66.0088 38.9393 65.864 39.219V38.4918H65.249V42.8551H65.864ZM72.1775 44.7197C72.5393 44.7197 72.8619 44.6327 73.1453 44.4586C73.4287 44.2846 73.6488 44.0438 73.8055 43.7361C73.9623 43.4284 74.0407 43.0788 74.0407 42.6872V38.4918H73.4257V39.1444C73.2508 38.8896 73.0352 38.6923 72.7789 38.5524C72.5227 38.4126 72.2408 38.3426 71.9332 38.3426C71.5292 38.3426 71.1689 38.4421 70.8524 38.641C70.5358 38.8399 70.2886 39.1149 70.1107 39.4661C69.9328 39.8173 69.8438 40.2166 69.8438 40.6641C69.8438 41.1178 69.9343 41.5218 70.1152 41.8761C70.2961 42.2304 70.5463 42.507 70.8659 42.7059C71.1855 42.9048 71.5473 43.0042 71.9513 43.0042C72.2528 43.0042 72.5302 42.9343 72.7835 42.7945C73.0367 42.6546 73.2508 42.4604 73.4257 42.2118V42.6872C73.4257 43.1099 73.3096 43.458 73.0774 43.7314C72.8453 44.0049 72.5453 44.1417 72.1775 44.1417H70.4227V44.7197H72.1775ZM71.9332 42.4262C71.6498 42.4262 71.3966 42.3516 71.1735 42.2024C70.9503 42.0533 70.7755 41.845 70.6488 41.5778C70.5222 41.3105 70.4589 41.006 70.4589 40.6641C70.4589 40.3285 70.5222 40.0286 70.6488 39.7644C70.7755 39.5003 70.9503 39.2936 71.1735 39.1444C71.3966 38.9953 71.6498 38.9207 71.9332 38.9207C72.2227 38.9207 72.4805 38.9953 72.7066 39.1444C72.9327 39.2936 73.1091 39.5018 73.2357 39.7691C73.3623 40.0363 73.4257 40.3378 73.4257 40.6734C73.4257 41.0091 73.3623 41.3105 73.2357 41.5778C73.1091 41.845 72.9327 42.0533 72.7066 42.2024C72.4805 42.3516 72.2227 42.4262 71.9332 42.4262ZM78.0296 42.8551V40.4217H79.3411C79.9139 40.4217 80.3737 40.2477 80.7205 39.8996C81.0672 39.5515 81.2405 39.073 81.2405 38.4638C81.2405 37.8485 81.0747 37.3668 80.7431 37.0187C80.4114 36.6707 79.9682 36.4966 79.4135 36.4966H77.3512V42.8551H78.0296ZM79.323 39.8437H78.0296V37.0747H79.323C79.727 37.0747 80.0345 37.1928 80.2456 37.429C80.4566 37.6652 80.5622 38.0101 80.5622 38.4638C80.5622 38.9176 80.4566 39.261 80.2456 39.494C80.0345 39.7271 79.727 39.8437 79.323 39.8437ZM83.8817 43.0042C84.1832 43.0042 84.4606 42.9343 84.7138 42.7945C84.9671 42.6546 85.1812 42.4604 85.356 42.2118V42.8551H85.9711V38.4918H85.356V39.1444C85.1812 38.8896 84.9656 38.6923 84.7093 38.5524C84.453 38.4126 84.1711 38.3426 83.8636 38.3426C83.4596 38.3426 83.0993 38.4421 82.7827 38.641C82.4661 38.8399 82.2189 39.1149 82.041 39.4661C81.8631 39.8173 81.7742 40.2166 81.7742 40.6641C81.7742 41.1178 81.8647 41.5218 82.0456 41.8761C82.2265 42.2304 82.4767 42.507 82.7963 42.7059C83.1159 42.9048 83.4777 43.0042 83.8817 43.0042ZM83.8636 42.4262C83.5802 42.4262 83.3269 42.3516 83.1038 42.2024C82.8807 42.0533 82.7058 41.845 82.5792 41.5778C82.4526 41.3105 82.3893 41.006 82.3893 40.6641C82.3893 40.3285 82.4526 40.0286 82.5792 39.7644C82.7058 39.5003 82.8807 39.2936 83.1038 39.1444C83.3269 38.9953 83.5802 38.9207 83.8636 38.9207C84.153 38.9207 84.4108 38.9953 84.6369 39.1444C84.8631 39.2936 85.0394 39.5018 85.1661 39.7691C85.2927 40.0363 85.356 40.3378 85.356 40.6734C85.356 41.0091 85.2927 41.3105 85.1661 41.5778C85.0394 41.845 84.8631 42.0533 84.6369 42.2024C84.4108 42.3516 84.153 42.4262 83.8636 42.4262ZM87.7349 44.7197V42.2024C87.9097 42.4573 88.1253 42.6546 88.3816 42.7945C88.6379 42.9343 88.9198 43.0042 89.2273 43.0042C89.6313 43.0042 89.9916 42.9048 90.3082 42.7059C90.6247 42.507 90.872 42.232 91.0499 41.8808C91.2277 41.5296 91.3167 41.1303 91.3167 40.6828C91.3167 40.229 91.2262 39.825 91.0453 39.4707C90.8644 39.1165 90.6142 38.8399 90.2946 38.641C89.975 38.4421 89.6132 38.3426 89.2092 38.3426C88.9077 38.3426 88.6303 38.4126 88.3771 38.5524C88.1238 38.6923 87.9097 38.8865 87.7349 39.1351V38.4918H87.1198V44.7197H87.7349ZM89.2273 42.4262C88.9378 42.4262 88.6801 42.3516 88.4539 42.2024C88.2278 42.0533 88.0514 41.845 87.9248 41.5778C87.7982 41.3105 87.7349 41.0091 87.7349 40.6734C87.7349 40.3378 87.7982 40.0363 87.9248 39.7691C88.0514 39.5018 88.2278 39.2936 88.4539 39.1444C88.6801 38.9953 88.9378 38.9207 89.2273 38.9207C89.5107 38.9207 89.764 38.9953 89.9871 39.1444C90.2102 39.2936 90.385 39.5018 90.5117 39.7691C90.6383 40.0363 90.7016 40.3409 90.7016 40.6828C90.7016 41.0184 90.6383 41.3183 90.5117 41.5824C90.385 41.8466 90.2102 42.0533 89.9871 42.2024C89.764 42.3516 89.5107 42.4262 89.2273 42.4262ZM94.0392 43.0042C94.4854 43.0042 94.8714 42.9125 95.197 42.7292C95.5226 42.5458 95.7849 42.2926 95.9839 41.9694L95.4955 41.6337C95.3507 41.8823 95.1593 42.0766 94.9211 42.2164C94.6829 42.3563 94.3829 42.4262 94.0211 42.4262C93.5749 42.4262 93.2222 42.2677 92.9629 41.9507C92.7036 41.6337 92.5619 41.2515 92.5378 40.804H96.0201C96.0261 40.7418 96.0291 40.6517 96.0291 40.5336C96.0291 40.1234 95.9417 39.752 95.7668 39.4195C95.592 39.0869 95.3508 38.8243 95.0432 38.6317C94.7357 38.439 94.392 38.3426 94.0121 38.3426C93.6081 38.3426 93.2478 38.4421 92.9312 38.641C92.6146 38.8399 92.3674 39.1165 92.1895 39.4707C92.0116 39.825 91.9227 40.2259 91.9227 40.6734C91.9227 41.1209 92.0131 41.5218 92.194 41.8761C92.3749 42.2304 92.6252 42.507 92.9448 42.7059C93.2644 42.9048 93.6292 43.0042 94.0392 43.0042ZM95.4141 40.2819H92.5739C92.6403 39.8903 92.7985 39.5655 93.0488 39.3076C93.299 39.0496 93.6201 38.9207 94.0121 38.9207C94.4161 38.9207 94.7357 39.0341 94.9709 39.261C95.206 39.4878 95.3538 39.8281 95.4141 40.2819ZM97.5487 42.8551V40.7667C97.5487 40.3813 97.6165 40.0472 97.7522 39.7644C97.8879 39.4816 98.0673 39.2656 98.2904 39.1165C98.5135 38.9673 98.7547 38.8927 99.014 38.8927C99.1647 38.8927 99.3034 38.9238 99.43 38.9859V38.4079C99.2974 38.3644 99.1587 38.3426 99.014 38.3426C98.7004 38.3426 98.4185 38.4328 98.1683 38.613C97.918 38.7933 97.7115 39.045 97.5487 39.3682V38.4918H96.9336V42.8551H97.5487ZM104.459 43.0042C104.954 43.0042 105.38 42.8768 105.739 42.622C106.098 42.3671 106.386 41.9973 106.603 41.5125L106.033 41.1582C105.828 41.5747 105.606 41.8808 105.368 42.0766C105.13 42.2724 104.797 42.3702 104.369 42.3702C104.025 42.3702 103.723 42.263 103.464 42.0486C103.205 41.8342 103.006 41.5249 102.867 41.1209C102.728 40.7169 102.659 40.2383 102.659 39.6852C102.659 38.8399 102.811 38.1795 103.116 37.704C103.42 37.2285 103.841 36.9908 104.378 36.9908C104.752 36.9908 105.068 37.07 105.327 37.2285C105.587 37.387 105.813 37.6496 106.006 38.0163L106.548 37.69C106.343 37.2674 106.059 36.9395 105.694 36.7064C105.329 36.4733 104.89 36.3568 104.378 36.3568C103.877 36.3568 103.445 36.4889 103.08 36.753C102.715 37.0172 102.434 37.3994 102.239 37.8998C102.043 38.4001 101.945 38.9984 101.945 39.6945C101.945 40.3844 102.046 40.9764 102.248 41.4706C102.45 41.9647 102.739 42.3438 103.116 42.608C103.493 42.8721 103.94 43.0042 104.459 43.0042ZM109.334 43.0042C109.738 43.0042 110.099 42.9048 110.415 42.7059C110.732 42.507 110.979 42.2304 111.157 41.8761C111.335 41.5218 111.424 41.1209 111.424 40.6734C111.424 40.2259 111.333 39.825 111.152 39.4707C110.971 39.1165 110.721 38.8399 110.402 38.641C110.082 38.4421 109.72 38.3426 109.316 38.3426C108.912 38.3426 108.552 38.4421 108.235 38.641C107.919 38.8399 107.672 39.1149 107.494 39.4661C107.316 39.8173 107.227 40.2166 107.227 40.6641C107.227 41.1116 107.317 41.5141 107.498 41.8715C107.679 42.2288 107.929 42.507 108.249 42.7059C108.569 42.9048 108.93 43.0042 109.334 43.0042ZM109.316 42.4262C109.033 42.4262 108.78 42.3516 108.556 42.2024C108.333 42.0533 108.158 41.845 108.032 41.5778C107.905 41.3105 107.842 41.006 107.842 40.6641C107.842 40.3285 107.905 40.0286 108.032 39.7644C108.158 39.5003 108.333 39.2936 108.556 39.1444C108.78 38.9953 109.033 38.9207 109.316 38.9207C109.606 38.9207 109.863 38.9953 110.09 39.1444C110.316 39.2936 110.492 39.5018 110.619 39.7691C110.745 40.0363 110.809 40.3378 110.809 40.6734C110.809 41.0091 110.745 41.3105 110.619 41.5778C110.492 41.845 110.316 42.0533 110.09 42.2024C109.863 42.3516 109.606 42.4262 109.316 42.4262ZM112.907 42.8551V40.6734C112.907 40.1389 112.999 39.7131 113.183 39.3962C113.367 39.0792 113.643 38.9207 114.011 38.9207C114.282 38.9207 114.502 39.0217 114.671 39.2237C114.84 39.4257 114.924 39.7566 114.924 40.2166V42.8551H115.539V40.3937C115.569 39.94 115.676 39.5811 115.86 39.3169C116.044 39.0527 116.302 38.9207 116.634 38.9207C116.905 38.9207 117.125 39.0217 117.294 39.2237C117.463 39.4257 117.547 39.7566 117.547 40.2166V42.8551H118.162V39.9369C118.162 39.4397 118.033 39.0496 117.773 38.7668C117.514 38.484 117.188 38.3426 116.796 38.3426C116.495 38.3426 116.23 38.4297 116 38.6037C115.771 38.7777 115.59 39.0201 115.458 39.3309C115.367 39.0139 115.208 38.7699 114.978 38.599C114.749 38.4281 114.481 38.3426 114.173 38.3426C113.896 38.3426 113.65 38.4141 113.436 38.5571C113.222 38.7 113.046 38.9051 112.907 39.1724V38.4918H112.292V42.8551H112.907ZM119.881 44.7197V42.2024C120.056 42.4573 120.271 42.6546 120.528 42.7945C120.784 42.9343 121.066 43.0042 121.373 43.0042C121.777 43.0042 122.138 42.9048 122.454 42.7059C122.771 42.507 123.018 42.232 123.196 41.8808C123.374 41.5296 123.463 41.1303 123.463 40.6828C123.463 40.229 123.372 39.825 123.191 39.4707C123.01 39.1165 122.76 38.8399 122.441 38.641C122.121 38.4421 121.759 38.3426 121.355 38.3426C121.054 38.3426 120.776 38.4126 120.523 38.5524C120.27 38.6923 120.056 38.8865 119.881 39.1351V38.4918H119.266V44.7197H119.881ZM121.373 42.4262C121.084 42.4262 120.826 42.3516 120.6 42.2024C120.374 42.0533 120.197 41.845 120.071 41.5778C119.944 41.3105 119.881 41.0091 119.881 40.6734C119.881 40.3378 119.944 40.0363 120.071 39.7691C120.197 39.5018 120.374 39.2936 120.6 39.1444C120.826 38.9953 121.084 38.9207 121.373 38.9207C121.657 38.9207 121.91 38.9953 122.133 39.1444C122.356 39.2936 122.531 39.5018 122.658 39.7691C122.784 40.0363 122.848 40.3409 122.848 40.6828C122.848 41.0184 122.784 41.3183 122.658 41.5824C122.531 41.8466 122.356 42.0533 122.133 42.2024C121.91 42.3516 121.657 42.4262 121.373 42.4262ZM126.176 43.0042C126.478 43.0042 126.755 42.9343 127.008 42.7945C127.262 42.6546 127.476 42.4604 127.65 42.2118V42.8551H128.266V38.4918H127.65V39.1444C127.476 38.8896 127.26 38.6923 127.004 38.5524C126.747 38.4126 126.466 38.3426 126.158 38.3426C125.754 38.3426 125.394 38.4421 125.077 38.641C124.761 38.8399 124.513 39.1149 124.335 39.4661C124.158 39.8173 124.069 40.2166 124.069 40.6641C124.069 41.1178 124.159 41.5218 124.34 41.8761C124.521 42.2304 124.771 42.507 125.091 42.7059C125.41 42.9048 125.772 43.0042 126.176 43.0042ZM126.158 42.4262C125.875 42.4262 125.621 42.3516 125.398 42.2024C125.175 42.0533 125 41.845 124.874 41.5778C124.747 41.3105 124.684 41.006 124.684 40.6641C124.684 40.3285 124.747 40.0286 124.874 39.7644C125 39.5003 125.175 39.2936 125.398 39.1444C125.621 38.9953 125.875 38.9207 126.158 38.9207C126.447 38.9207 126.705 38.9953 126.931 39.1444C127.158 39.2936 127.334 39.5018 127.461 39.7691C127.587 40.0363 127.65 40.3378 127.65 40.6734C127.65 41.0091 127.587 41.3105 127.461 41.5778C127.334 41.845 127.158 42.0533 126.931 42.2024C126.705 42.3516 126.447 42.4262 126.158 42.4262ZM130.02 42.8551V40.6734C130.02 40.1389 130.129 39.7131 130.346 39.3962C130.563 39.0792 130.889 38.9207 131.323 38.9207C132.07 38.9207 132.444 39.3526 132.444 40.2166V42.8551H133.059V39.9369C133.059 39.6075 132.986 39.3216 132.838 39.0792C132.69 38.8368 132.491 38.6534 132.241 38.5291C131.991 38.4048 131.718 38.3426 131.422 38.3426C131.109 38.3426 130.833 38.4188 130.595 38.5711C130.356 38.7233 130.165 38.9393 130.02 39.219V38.4918H129.405V42.8551H130.02ZM135.465 44.7197L137.754 38.4918H137.175L135.827 42.1092L134.425 38.4918H133.783L135.52 42.939L134.85 44.7197H135.465Z" fill="white"/>
<path fill-rule="evenodd" clip-rule="evenodd" d="M22.4488 9.18701V39.4347C20.1268 40.9086 17.3624 42.1229 14.308 42.9198C11.7859 43.5787 9.30753 43.8899 6.99092 43.8899C4.75732 43.8899 2.6742 43.6009 0.841309 43.053V12.8055C0.842294 12.8055 0.844018 12.8063 0.845003 12.8063C1.52747 13.0099 2.24442 13.178 2.99167 13.3086C3.683 13.4298 4.39995 13.5188 5.13833 13.5736C5.74223 13.6201 6.36042 13.6433 6.99092 13.6433C9.30851 13.6433 11.7859 13.331 14.308 12.6729C17.3624 11.875 20.1268 10.6617 22.4488 9.18701ZM18.155 16.131C17.9735 16.1947 17.7911 16.257 17.6077 16.318L18.155 16.3177L18.155 16.131Z" fill="#F4F4F5"/>
<path fill-rule="evenodd" clip-rule="evenodd" d="M30.4901 2.4541V35.862C27.8981 37.4899 24.8123 38.8311 21.4026 39.7112C18.5874 40.439 15.8208 40.7827 13.2348 40.7827C10.7415 40.7827 8.41613 40.4635 6.37012 39.8583V6.45069C6.37122 6.45069 6.37314 6.45153 6.37424 6.45153C7.13607 6.67637 7.93638 6.86204 8.77052 7.00629C9.54224 7.14012 10.3426 7.23845 11.1668 7.29903C11.8409 7.35031 12.531 7.37594 13.2348 7.37594C15.8219 7.37594 18.5874 7.03109 21.4026 6.30418C24.8123 5.42287 27.8981 4.08288 30.4901 2.4541Z" fill="white"/>
<path d="M264.626 36.8223C265.721 36.749 266.51 36.5878 266.993 36.3387C267.846 35.8844 268.273 35.0564 268.273 33.8547V11.6533C268.273 10.4956 267.867 9.6896 267.057 9.23532C266.588 8.97154 265.778 8.78836 264.626 8.68578V7.54273H277.976C283.364 7.54273 287.473 9.02283 290.302 11.983C292.876 14.6794 294.162 18.2991 294.162 22.842C294.162 26.9159 292.868 30.367 290.281 33.1953C287.366 36.3753 283.414 37.9653 278.424 37.9653H264.626V36.8223ZM275.332 33.8108C275.374 34.734 275.538 35.4008 275.822 35.8111C276.121 36.2214 276.746 36.4266 277.699 36.4266C280.286 36.4266 282.412 35.4887 284.075 33.613C285.738 31.7225 286.57 28.1029 286.57 22.754C286.57 19.574 286.122 16.841 285.227 14.5549C283.777 10.8766 281.331 9.03748 277.891 9.03748C276.753 9.03748 276.014 9.28661 275.673 9.78486C275.445 10.1073 275.332 10.7301 275.332 11.6533V33.8108Z" fill="white"/>
<path d="M296.551 27.6559C296.551 24.5199 297.482 21.9041 299.344 19.8085C301.221 17.7129 303.574 16.6651 306.403 16.6651C309.289 16.6651 311.649 17.7349 313.483 19.8744C315.332 22.014 316.256 24.6078 316.256 27.6559C316.256 30.6601 315.346 33.2466 313.526 35.4154C311.706 37.5696 309.332 38.6467 306.403 38.6467C303.56 38.6467 301.207 37.599 299.344 35.5034C297.482 33.3931 296.551 30.7773 296.551 27.6559ZM302.97 27.6559C302.97 30.8066 303.126 33.0121 303.439 34.2724C303.937 36.2214 304.925 37.196 306.403 37.196C307.811 37.196 308.735 36.4486 309.176 34.9538C309.616 33.4591 309.837 31.0264 309.837 27.6559C309.837 24.3001 309.602 21.8748 309.133 20.38C308.678 18.8706 307.775 18.1159 306.425 18.1159C304.946 18.1159 303.958 19.0904 303.46 21.0395C303.133 22.3437 302.97 24.5492 302.97 27.6559Z" fill="white"/>
<path d="M318.218 36.8882C319.056 36.7856 319.639 36.5805 319.966 36.2727C320.293 35.965 320.471 35.3715 320.5 34.4922L320.542 33.1733V20.9295C320.542 19.9917 320.386 19.3542 320.073 19.0171C319.76 18.6801 319.142 18.453 318.218 18.3357V17.2366H326.513V20.7757C327.438 19.5301 328.355 18.5409 329.264 17.8082C330.174 17.0754 331.226 16.7091 332.421 16.7091C333.316 16.7091 334.12 17.0095 334.83 17.6103C335.556 18.1965 335.918 19.0611 335.918 20.2042C335.918 21.0834 335.662 21.8088 335.15 22.3803C334.653 22.9519 333.999 23.2376 333.188 23.2376C332.264 23.2376 331.461 22.7907 330.779 21.8967C330.11 21.0028 329.641 20.5559 329.371 20.5559C328.788 20.5559 328.198 20.9295 327.601 21.6769C327.018 22.4096 326.727 23.4648 326.727 24.8423V33.3492C326.727 34.8439 326.933 35.7818 327.345 36.1628C327.772 36.5292 328.61 36.771 329.862 36.8882V37.9653H318.218V36.8882Z" fill="white"/>
<path d="M337.432 36.8882C338.328 36.8149 338.968 36.6098 339.352 36.2727C339.75 35.9357 339.949 35.2323 339.949 34.1625V19.5227H337.432V17.5444H339.949V15.8738C339.949 13.7782 340.269 12.0563 340.908 10.7081C342.117 8.18753 344.349 6.92725 347.605 6.92725C349.339 6.92725 350.803 7.33757 351.998 8.15822C353.206 8.96421 353.81 10.034 353.81 11.3675C353.81 12.2028 353.554 12.8769 353.043 13.3898C352.545 13.9028 351.877 14.1592 351.038 14.1592C350.341 14.1592 349.744 13.9247 349.247 13.4558C348.749 12.9869 348.5 12.4227 348.5 11.7632C348.5 11.265 348.657 10.7447 348.969 10.2025C349.296 9.64564 349.46 9.30859 349.46 9.19135C349.46 8.82499 349.332 8.59052 349.076 8.48794C348.82 8.38536 348.543 8.33407 348.244 8.33407C347.534 8.33407 346.986 8.54656 346.602 8.97154C346.218 9.39652 346.026 10.3124 346.026 11.7192V17.5444H349.822V19.5227H346.026V33.3492C346.026 34.9025 346.24 35.8551 346.666 36.2068C347.107 36.5585 348.074 36.7856 349.567 36.8882V37.9653H337.432V36.8882Z" fill="white"/>
<path d="M360.315 17.2366V32.5139C360.315 33.4224 360.421 34.0892 360.635 34.5142C361.004 35.2616 361.736 35.6353 362.831 35.6353C363.528 35.6353 364.21 35.4081 364.878 34.9538C365.262 34.7047 365.746 34.2871 366.329 33.7009V20.9295C366.329 19.9917 366.144 19.3395 365.774 18.9732C365.419 18.5922 364.694 18.3797 363.599 18.3357V17.2366H372.3V33.4371C372.3 34.375 372.47 35.0271 372.812 35.3935C373.153 35.7452 373.821 35.965 374.816 36.0529V37.0861C372.115 37.3498 370.409 37.5477 369.698 37.6796C369.001 37.7968 367.878 38.1045 366.329 38.6028V35.6353C365.291 36.5585 364.431 37.2106 363.748 37.5916C362.554 38.2657 361.31 38.6028 360.016 38.6028C358.609 38.6028 357.294 38.1412 356.071 37.2179C354.862 36.2947 354.258 34.6534 354.258 32.2941V20.9295C354.258 19.977 354.109 19.3542 353.81 19.0611C353.512 18.768 352.936 18.5262 352.083 18.3357V17.2366H360.315Z" fill="white"/>
<path d="M376.8 31.151H378.015C378.442 33.3052 379.238 34.8293 380.404 35.7232C381.569 36.6025 382.764 37.0421 383.986 37.0421C385.11 37.0421 385.934 36.7856 386.46 36.2727C386.986 35.7452 387.249 35.0564 387.249 34.2065C387.249 33.4005 386.965 32.7117 386.396 32.1402C386.083 31.8324 385.579 31.5027 384.882 31.151L381.641 29.5244C379.934 28.6598 378.712 27.7219 377.973 26.7107C377.219 25.6996 376.842 24.5052 376.842 23.1277C376.842 21.3838 377.432 19.8818 378.612 18.6215C379.792 17.3465 381.441 16.7091 383.56 16.7091C384.484 16.7091 385.465 16.8703 386.503 17.1927C387.541 17.5004 388.188 17.6543 388.443 17.6543C388.799 17.6543 389.048 17.581 389.19 17.4345C389.346 17.2733 389.474 17.0535 389.574 16.775H390.533V23.2816H389.424C389.012 21.7575 388.337 20.5339 387.398 19.6107C386.46 18.6874 385.365 18.2258 384.114 18.2258C383.148 18.2258 382.422 18.5042 381.939 19.0611C381.47 19.618 381.235 20.2188 381.235 20.8636C381.235 21.3912 381.449 21.9187 381.875 22.4463C382.287 22.9885 383.069 23.5454 384.221 24.1169L386.609 25.3039C388.088 26.0366 389.169 26.7474 389.851 27.4361C390.988 28.6085 391.557 30.0519 391.557 31.7665C391.557 33.4371 390.967 34.9978 389.787 36.4486C388.621 37.8847 386.865 38.6028 384.52 38.6028C383.937 38.6028 383.347 38.5368 382.749 38.4049C382.167 38.2877 381.441 38.0752 380.574 37.7675L379.828 37.5037C379.558 37.4011 379.387 37.3425 379.316 37.3278C379.259 37.3132 379.181 37.3059 379.081 37.3059C378.84 37.3059 378.626 37.4084 378.442 37.6136C378.271 37.8041 378.072 38.1338 377.845 38.6028H376.8V31.151Z" fill="white"/>
<path d="M860.172 31.369C864.883 31.369 868.011 29.1159 868.011 25.2313C868.011 21.3326 864.903 20.1125 861.919 19.195L861.575 19.0903C858.948 18.2961 856.516 17.6671 856.516 15.5585C856.516 13.8881 857.835 12.8392 860.134 12.8392C862.132 12.8392 863.564 13.6938 864.204 15.5196L867.257 14.2765C866.39 11.5573 863.79 10.0423 860.172 10.0423C855.8 10.0423 852.974 12.2177 852.974 15.7527C852.974 22.7839 864.393 20.5697 864.393 25.5032C864.393 27.4067 862.772 28.4944 860.285 28.4944C857.534 28.4944 855.687 27.2513 855.046 25.1536L851.994 26.3967C853.049 29.6598 856.064 31.369 860.172 31.369ZM889.518 37.8953V10.4696H886.541V14.2765C884.958 11.635 882.32 10.0423 879.003 10.0423C873.35 10.0423 869.317 14.6262 869.317 20.7251C869.317 26.824 873.463 31.369 879.078 31.369C882.206 31.369 884.732 29.9317 886.314 27.5621V37.8953H889.518ZM879.455 28.4555C875.46 28.4555 872.483 25.1536 872.483 20.7251C872.483 16.2577 875.46 12.9558 879.455 12.9558C883.563 12.9558 886.427 16.18 886.427 20.7251C886.427 25.2701 883.601 28.4555 879.455 28.4555ZM901.264 31.369C904.203 31.369 906.578 29.9317 907.897 28.0282V30.9417H910.949V10.4696H907.746V23.3278C907.708 25.9305 905.447 28.4167 902.093 28.4167C898.701 28.4555 896.553 26.1636 896.553 22.7062V10.4696H893.349V23.0947C893.349 27.9505 896.176 31.369 901.264 31.369ZM923.562 31.369C926.916 31.369 929.517 29.7375 931.024 27.0182V30.9417H934.002V10.4696H931.024V14.4319C929.517 11.7904 926.916 10.2365 923.562 10.2365C917.947 10.2365 913.801 14.6262 913.801 20.6862C913.801 26.824 917.909 31.369 923.562 31.369ZM923.939 28.4555C919.944 28.4555 916.967 25.1536 916.967 20.6862C916.967 16.2966 919.944 12.9558 923.939 12.9558C928.085 12.9558 930.911 16.1412 930.911 20.6862C930.911 25.2701 928.047 28.4555 923.939 28.4555ZM941.301 30.9417V18.5885C941.301 15.675 943.826 13.15 947.444 13.1111V10.0423C944.655 10.0423 942.393 11.5573 941.112 13.4608V10.4696H938.097V30.9417H941.301ZM957.418 31.4079C962.129 31.4079 964.88 29.3102 966.35 26.3967L963.561 24.6486C962.581 27.0182 960.772 28.3002 957.531 28.3002C953.876 28.3002 950.974 25.7363 950.408 21.9293H966.915C966.953 21.5408 966.991 20.8416 966.991 20.2589C966.991 14.8592 963.184 10.0034 957.192 10.0034C951.577 10.0034 947.167 14.7815 947.167 20.7251C947.167 26.824 951.313 31.4079 957.418 31.4079ZM963.712 19.0547H950.446C951.049 15.17 953.951 12.8781 957.305 12.8781C960.622 12.8781 963.222 15.2089 963.712 19.0547Z" fill="white"/>
<path d="M898.059 43.4447C898.162 43.4447 898.271 43.4378 898.386 43.4242C898.501 43.4105 898.626 43.39 898.761 43.3627V43.0077H898.682C898.308 43.0077 898.042 42.9614 897.883 42.8688C897.724 42.7762 897.598 42.6025 897.507 42.3476C897.466 42.2413 897.41 42.0266 897.339 41.7034C897.269 41.3802 897.183 41.1351 897.083 40.9682C896.995 40.8165 896.874 40.6898 896.721 40.5881C896.568 40.4864 896.378 40.4037 896.151 40.34C896.637 40.2307 897.002 40.0464 897.247 39.7869C897.491 39.5274 897.613 39.1958 897.613 38.7922C897.613 38.2247 897.435 37.8036 897.079 37.5289C896.722 37.2543 896.175 37.1169 895.436 37.1169H893.13V37.4902L893.643 37.5449L893.797 37.6769V42.8119L893.643 42.9439L893.13 42.9894V43.3718H895.281V42.9894L894.764 42.9439L894.61 42.8119V40.5949L894.641 40.5904C894.835 40.5813 894.976 40.5767 895.065 40.5767C895.48 40.5767 895.79 40.6495 895.994 40.7952C896.199 40.9409 896.362 41.2034 896.482 41.5828C896.515 41.6829 896.558 41.8347 896.611 42.038C896.752 42.6025 896.93 42.9819 897.145 43.1761C897.248 43.2671 897.374 43.3347 897.523 43.3787C897.671 43.4227 897.85 43.4447 898.059 43.4447ZM895.109 40.1533C895.032 40.1533 894.953 40.1526 894.87 40.1511C894.788 40.1495 894.701 40.1473 894.61 40.1442V37.5449H895.047C895.633 37.5449 896.057 37.6496 896.319 37.859C896.581 38.0684 896.712 38.4052 896.712 38.8696C896.712 39.3187 896.585 39.645 896.33 39.8483C896.075 40.0517 895.668 40.1533 895.109 40.1533ZM900.399 43.4538C900.69 43.4538 900.98 43.4067 901.269 43.3127C901.557 43.2186 901.836 43.0805 902.104 42.8984V42.384C901.833 42.5691 901.582 42.7057 901.351 42.7937C901.119 42.8817 900.896 42.9257 900.681 42.9257C900.216 42.9257 899.847 42.755 899.573 42.4136C899.299 42.0721 899.162 41.6086 899.162 41.0228V40.9181H902.09C902.096 40.8817 902.1 40.8438 902.101 40.8043C902.103 40.7649 902.104 40.7072 902.104 40.6313C902.104 40.0638 901.957 39.6154 901.664 39.2861C901.371 38.9568 900.974 38.7922 900.474 38.7922C899.861 38.7922 899.36 39.013 898.97 39.4546C898.58 39.8961 898.385 40.4659 898.385 41.164C898.385 41.8438 898.571 42.3954 898.944 42.8187C899.316 43.2421 899.801 43.4538 900.399 43.4538ZM901.295 40.5266H899.206C899.233 40.1473 899.356 39.8339 899.575 39.5866C899.794 39.3392 900.054 39.2156 900.355 39.2156C900.661 39.2156 900.894 39.3157 901.055 39.516C901.215 39.7163 901.295 40.0046 901.295 40.381V40.5266ZM903.728 43.4356C903.94 43.4356 904.167 43.3863 904.41 43.2876C904.653 43.189 904.92 43.0365 905.212 42.8301L905.331 43.3718H906.603V43.035L906.126 42.9894L905.971 42.8392V40.1351C905.971 39.6647 905.864 39.3233 905.649 39.1109C905.434 38.8984 905.089 38.7922 904.615 38.7922C904.077 38.7922 903.637 38.8923 903.297 39.0926C902.957 39.2929 902.787 39.5448 902.787 39.8483C902.787 39.9576 902.807 40.0327 902.847 40.0737C902.886 40.1146 902.961 40.1351 903.07 40.1351H903.692V39.3521C903.813 39.3036 903.929 39.2672 904.041 39.2429C904.153 39.2186 904.266 39.2065 904.381 39.2065C904.687 39.2065 904.902 39.2823 905.026 39.4341C905.15 39.5858 905.212 39.8574 905.212 40.2489V40.5448C904.084 40.824 903.362 41.0775 903.045 41.3051C902.729 41.5327 902.571 41.8453 902.571 42.2429C902.571 42.601 902.676 42.8893 902.886 43.1078C903.097 43.3263 903.377 43.4356 903.728 43.4356ZM904.09 42.9348C903.869 42.9348 903.693 42.8658 903.562 42.7277C903.431 42.5896 903.365 42.4037 903.365 42.17C903.365 41.8787 903.484 41.6435 903.721 41.4644C903.958 41.2854 904.455 41.0881 905.212 40.8726V42.516C904.973 42.6556 904.762 42.7603 904.578 42.8301C904.394 42.8999 904.231 42.9348 904.09 42.9348ZM908.845 43.3718V43.035L908.328 42.9894L908.165 42.8392V36.5115H907.821L906.716 36.8438V37.1351H907.414V42.8392L907.26 42.9894L906.725 43.035V43.3718H908.845ZM915.892 43.3718V41.8514H915.423L915.269 42.7937L915.141 42.9439H912.716V40.3309H914.2L914.328 40.472L914.416 41.1457H914.845V39.0926H914.416L914.328 39.7709L914.2 39.903H912.716V37.5449H914.81L914.933 37.686L915.061 38.4781H915.569V37.1169H911.237V37.4902L911.749 37.5449L911.903 37.6769V42.8119L911.749 42.9439L911.237 42.9894V43.3718H915.892ZM917.401 43.4538C917.931 43.4538 918.345 43.3301 918.644 43.0828C918.943 42.8354 919.092 42.4932 919.092 42.0562C919.092 41.8893 919.063 41.7368 919.004 41.5987C918.945 41.4606 918.86 41.3461 918.748 41.255C918.595 41.1245 918.347 40.9788 918.006 40.818C917.909 40.7725 917.837 40.7376 917.789 40.7133C917.489 40.5646 917.286 40.4295 917.18 40.3081C917.074 40.1867 917.021 40.0395 917.021 39.8665C917.021 39.6541 917.087 39.4887 917.22 39.3703C917.352 39.252 917.536 39.1928 917.772 39.1928C917.881 39.1928 917.99 39.2095 918.099 39.2429C918.208 39.2763 918.322 39.3263 918.443 39.3931L918.514 40.0532H918.96V38.997C918.807 38.9303 918.643 38.8794 918.467 38.8445C918.292 38.8096 918.103 38.7922 917.9 38.7922C917.391 38.7922 916.996 38.906 916.716 39.1336C916.437 39.3612 916.297 39.6829 916.297 40.0987C916.297 40.3719 916.378 40.601 916.542 40.7861C916.705 40.9712 917.014 41.1685 917.467 41.3779C917.868 41.5661 918.121 41.7216 918.227 41.8445C918.333 41.9674 918.386 42.123 918.386 42.3111C918.386 42.5357 918.308 42.7171 918.154 42.8551C917.999 42.9932 917.794 43.0623 917.538 43.0623C917.408 43.0623 917.279 43.0441 917.151 43.0077C917.023 42.9712 916.896 42.9151 916.769 42.8392L916.659 42.0471H916.226V43.258C916.394 43.3248 916.577 43.3741 916.776 43.406C916.975 43.4378 917.183 43.4538 917.401 43.4538ZM920.898 43.3992C921.083 43.3992 921.276 43.3817 921.476 43.3468C921.676 43.3119 921.879 43.2611 922.086 43.1943V42.8483C921.974 42.8756 921.865 42.8954 921.761 42.9075C921.656 42.9196 921.556 42.9257 921.458 42.9257C921.176 42.9257 920.98 42.8567 920.871 42.7186C920.762 42.5805 920.708 42.3096 920.708 41.906V39.4477H922.086V39.0107H920.708V38.0183H920.372L919.983 38.8878L919.387 39.1564V39.4477H919.957V42.4568C919.957 42.8149 920.027 43.0615 920.167 43.1966C920.306 43.3316 920.55 43.3992 920.898 43.3992ZM923.418 43.4356C923.63 43.4356 923.858 43.3863 924.101 43.2876C924.343 43.189 924.611 43.0365 924.902 42.8301L925.021 43.3718H926.293V43.035L925.816 42.9894L925.662 42.8392V40.1351C925.662 39.6647 925.554 39.3233 925.339 39.1109C925.124 38.8984 924.78 38.7922 924.306 38.7922C923.767 38.7922 923.328 38.8923 922.988 39.0926C922.647 39.2929 922.477 39.5448 922.477 39.8483C922.477 39.9576 922.497 40.0327 922.537 40.0737C922.577 40.1146 922.651 40.1351 922.76 40.1351H923.383V39.3521C923.504 39.3036 923.62 39.2672 923.732 39.2429C923.844 39.2186 923.957 39.2065 924.072 39.2065C924.378 39.2065 924.593 39.2823 924.717 39.4341C924.84 39.5858 924.902 39.8574 924.902 40.2489V40.5448C923.774 40.824 923.052 41.0775 922.736 41.3051C922.419 41.5327 922.261 41.8453 922.261 42.2429C922.261 42.601 922.366 42.8893 922.577 43.1078C922.787 43.3263 923.068 43.4356 923.418 43.4356ZM923.78 42.9348C923.56 42.9348 923.384 42.8658 923.253 42.7277C923.122 42.5896 923.056 42.4037 923.056 42.17C923.056 41.8787 923.175 41.6435 923.412 41.4644C923.649 41.2854 924.145 41.0881 924.902 40.8726V42.516C924.664 42.6556 924.452 42.7603 924.268 42.8301C924.084 42.8999 923.922 42.9348 923.78 42.9348ZM927.9 43.3992C928.085 43.3992 928.278 43.3817 928.478 43.3468C928.679 43.3119 928.882 43.2611 929.088 43.1943V42.8483C928.976 42.8756 928.868 42.8954 928.763 42.9075C928.659 42.9196 928.558 42.9257 928.461 42.9257C928.178 42.9257 927.982 42.8567 927.873 42.7186C927.764 42.5805 927.71 42.3096 927.71 41.906V39.4477H929.088V39.0107H927.71V38.0183H927.374L926.986 38.8878L926.389 39.1564V39.4477H926.959V42.4568C926.959 42.8149 927.029 43.0615 927.169 43.1966C927.309 43.3316 927.552 43.3992 927.9 43.3992ZM931.233 43.4538C931.525 43.4538 931.815 43.4067 932.103 43.3127C932.392 43.2186 932.67 43.0805 932.938 42.8984V42.384C932.667 42.5691 932.416 42.7057 932.185 42.7937C931.954 42.8817 931.731 42.9257 931.516 42.9257C931.05 42.9257 930.681 42.755 930.407 42.4136C930.133 42.0721 929.996 41.6086 929.996 41.0228V40.9181H932.925C932.93 40.8817 932.934 40.8438 932.936 40.8043C932.937 40.7649 932.938 40.7072 932.938 40.6313C932.938 40.0638 932.791 39.6154 932.498 39.2861C932.205 38.9568 931.809 38.7922 931.308 38.7922C930.696 38.7922 930.194 39.013 929.804 39.4546C929.414 39.8961 929.219 40.4659 929.219 41.164C929.219 41.8438 929.405 42.3954 929.778 42.8187C930.15 43.2421 930.635 43.4538 931.233 43.4538ZM932.13 40.5266H930.041C930.067 40.1473 930.19 39.8339 930.409 39.5866C930.629 39.3392 930.889 39.2156 931.189 39.2156C931.495 39.2156 931.728 39.3157 931.889 39.516C932.049 39.7163 932.13 40.0046 932.13 40.381V40.5266ZM937.409 43.4856C938.116 43.4856 938.683 43.3134 939.11 42.969C939.537 42.6245 939.75 42.1715 939.75 41.6101C939.75 41.4067 939.717 41.2186 939.651 41.0456C939.584 40.8726 939.485 40.7193 939.353 40.5858C939.12 40.3491 938.74 40.1245 938.213 39.9121C938.113 39.8726 938.038 39.8423 937.988 39.821C937.452 39.5873 937.107 39.3878 936.952 39.2224C936.798 39.057 936.72 38.8483 936.72 38.5964C936.72 38.2505 936.831 37.9766 937.052 37.7747C937.272 37.5729 937.571 37.472 937.948 37.472C938.107 37.472 938.254 37.4879 938.39 37.5198C938.525 37.5517 938.65 37.601 938.765 37.6678L938.898 37.8225L939.035 38.7103H939.507V37.2672C939.242 37.1791 938.982 37.1131 938.728 37.0691C938.473 37.0251 938.219 37.0031 937.966 37.0031C937.336 37.0031 936.83 37.1678 936.449 37.4971C936.067 37.8263 935.877 38.2581 935.877 38.7922C935.877 39.1716 935.977 39.4804 936.177 39.7186C936.377 39.9568 936.787 40.214 937.405 40.4902C937.455 40.5115 937.527 40.5433 937.621 40.5858C938.487 40.9652 938.92 41.3931 938.92 41.8696C938.92 42.2125 938.797 42.4849 938.551 42.6867C938.305 42.8885 937.972 42.9894 937.551 42.9894C937.35 42.9894 937.165 42.9712 936.994 42.9348C936.823 42.8984 936.672 42.8453 936.539 42.7755L936.42 42.6162L936.314 41.5464H935.78V43.1852C935.995 43.2823 936.241 43.3567 936.519 43.4083C936.798 43.4599 937.094 43.4856 937.409 43.4856ZM942.399 43.4538C943.011 43.4538 943.515 43.236 943.912 42.8005C944.308 42.365 944.506 41.8058 944.506 41.123C944.506 40.4401 944.308 39.881 943.914 39.4455C943.519 39.0099 943.014 38.7922 942.399 38.7922C941.781 38.7922 941.276 39.0092 940.886 39.4432C940.496 39.8772 940.301 40.4371 940.301 41.123C940.301 41.8089 940.498 42.3688 940.891 42.8028C941.284 43.2368 941.786 43.4538 942.399 43.4538ZM942.399 43.0532C942.025 43.0532 941.723 42.8779 941.493 42.5274C941.264 42.1769 941.149 41.7087 941.149 41.123C941.149 40.5373 941.263 40.0691 941.491 39.7186C941.719 39.3681 942.022 39.1928 942.399 39.1928C942.776 39.1928 943.08 39.3688 943.311 39.7209C943.542 40.0729 943.658 40.5403 943.658 41.123C943.658 41.7118 943.543 42.1806 943.313 42.5297C943.083 42.8787 942.779 43.0532 942.399 43.0532ZM946.911 43.3718V43.035L946.395 42.9894L946.231 42.8392V36.5115H945.887L944.783 36.8438V37.1351H945.48V42.8392L945.326 42.9894L944.791 43.035V43.3718H946.911ZM948.88 43.4629C949.095 43.4629 949.322 43.4128 949.562 43.3127C949.802 43.2125 950.064 43.0577 950.346 42.8483V43.3718H951.684V43.035L951.26 42.9894L951.097 42.8392V38.7922H950.753L949.701 39.1382V39.4295H950.346V42.5888C950.158 42.6829 949.977 42.7527 949.805 42.7982C949.633 42.8438 949.463 42.8665 949.295 42.8665C948.995 42.8665 948.774 42.7869 948.633 42.6275C948.491 42.4682 948.421 42.2186 948.421 41.8787V38.7922H948.076L947.025 39.1382V39.4295H947.67V42.038C947.67 42.4993 947.774 42.8521 947.981 43.0964C948.189 43.3407 948.488 43.4629 948.88 43.4629ZM953.37 43.3992C953.556 43.3992 953.749 43.3817 953.949 43.3468C954.149 43.3119 954.352 43.2611 954.558 43.1943V42.8483C954.446 42.8756 954.338 42.8954 954.234 42.9075C954.129 42.9196 954.028 42.9257 953.931 42.9257C953.649 42.9257 953.453 42.8567 953.344 42.7186C953.235 42.5805 953.18 42.3096 953.18 41.906V39.4477H954.558V39.0107H953.18V38.0183H952.845L952.456 38.8878L951.86 39.1564V39.4477H952.43V42.4568C952.43 42.8149 952.5 43.0615 952.639 43.1966C952.779 43.3316 953.023 43.3992 953.37 43.3992ZM955.745 37.8453C955.892 37.8453 956.017 37.7937 956.118 37.6905C956.22 37.5873 956.271 37.4614 956.271 37.3127C956.271 37.164 956.22 37.0365 956.118 36.9303C956.017 36.8241 955.892 36.771 955.745 36.771C955.601 36.771 955.478 36.8233 955.376 36.928C955.275 37.0327 955.224 37.1609 955.224 37.3127C955.224 37.4614 955.275 37.5873 955.376 37.6905C955.478 37.7937 955.601 37.8453 955.745 37.8453ZM956.704 43.3718V43.035L956.218 42.9894L956.063 42.8392V38.8423H955.71L954.672 39.1746V39.4659H955.304V42.8392L955.149 42.9894L954.672 43.035V43.3718H956.704ZM959.017 43.4538C959.629 43.4538 960.133 43.236 960.529 42.8005C960.925 42.365 961.123 41.8058 961.123 41.123C961.123 40.4401 960.926 39.881 960.532 39.4455C960.137 39.0099 959.632 38.7922 959.017 38.7922C958.398 38.7922 957.894 39.0092 957.504 39.4432C957.114 39.8772 956.919 40.4371 956.919 41.123C956.919 41.8089 957.115 42.3688 957.508 42.8028C957.902 43.2368 958.404 43.4538 959.017 43.4538ZM959.017 43.0532C958.643 43.0532 958.341 42.8779 958.111 42.5274C957.882 42.1769 957.767 41.7087 957.767 41.123C957.767 40.5373 957.881 40.0691 958.109 39.7186C958.337 39.3681 958.64 39.1928 959.017 39.1928C959.394 39.1928 959.698 39.3688 959.929 39.7209C960.16 40.0729 960.275 40.5403 960.275 41.123C960.275 41.7118 960.161 42.1806 959.931 42.5297C959.701 42.8787 959.397 43.0532 959.017 43.0532ZM963.41 43.3718V43.035L962.977 42.9894L962.823 42.8392V39.7163C963.017 39.6131 963.198 39.5365 963.366 39.4864C963.534 39.4363 963.69 39.4113 963.834 39.4113C964.164 39.4113 964.398 39.4841 964.538 39.6298C964.678 39.7755 964.748 40.0228 964.748 40.3719V42.8392L964.594 42.9894L964.161 43.035V43.3718H966.139V43.035L965.654 42.9894L965.499 42.8392V40.2125C965.499 39.7512 965.394 39.3992 965.185 39.1564C964.976 38.9136 964.675 38.7922 964.28 38.7922C964.112 38.7922 963.918 38.8339 963.697 38.9174C963.476 39.0008 963.185 39.1458 962.823 39.3521V38.8423H962.478L961.427 39.1746V39.4659H962.072V42.8392L961.917 42.9894L961.427 43.035V43.3718H963.41Z" fill="white"/>
<path fill-rule="evenodd" clip-rule="evenodd" d="M802.884 6.08008H840.572V44.9266H802.884V6.08008ZM830.934 16.0141L812.52 16.0121V34.9936L812.514 34.9995L812.514 35.0009H830.942L830.941 16.0074L830.94 16.0072L830.934 16.0141Z" fill="white"/>
<path d="M569.681 31.8525V18.3171C569.681 17.5246 569.62 15.9027 569.497 13.4514L571.142 19.3949L575.048 31.8525H578.277L582.183 19.3949C582.241 19.2082 582.304 18.9976 582.373 18.7631L582.457 18.4702C582.793 17.3034 583.239 15.6305 583.797 13.4514C583.705 15.7759 583.656 17.0914 583.651 17.3979C583.646 17.7043 583.643 18.0107 583.643 18.3171V31.8525H587.672V9.52073H581.629L577.646 22.6281L576.678 26.2101L575.94 23.2146L575.601 22.01L571.727 9.52073H565.653V31.8525H569.681ZM595.794 32.1694C598.234 32.1694 600.059 31.0441 601.268 28.7935H601.36C601.463 29.8607 601.773 30.669 602.291 31.2185C602.808 31.7679 603.611 32.0426 604.697 32.0426C605.005 32.0426 605.274 32.0321 605.504 32.0109C605.735 31.9898 605.953 31.9634 606.158 31.9317C606.363 31.9 606.568 31.8577 606.773 31.8049C606.978 31.7521 607.209 31.694 607.465 31.6306V29.2215C607.157 29.2849 606.84 29.3166 606.512 29.3166C606.02 29.3166 605.668 29.1343 605.458 28.7698C605.248 28.4052 605.143 27.7422 605.143 26.7807V20.536C605.143 18.5707 604.574 17.0545 603.436 15.9873C602.298 14.9201 600.679 14.3865 598.577 14.3865C596.496 14.3865 594.854 14.8171 593.649 15.6782C592.445 16.5393 591.704 17.8047 591.427 19.4741L595.933 19.696C596.025 18.8296 596.258 18.2088 596.632 17.8337C597.006 17.4586 597.593 17.2711 598.393 17.2711C599.254 17.2711 599.874 17.5431 600.253 18.0873C600.633 18.6315 600.822 19.4636 600.822 20.5836V21.4553L597.24 21.5187C595.107 21.5398 593.48 22.0153 592.358 22.9451C591.235 23.8749 590.674 25.2274 590.674 27.0026C590.674 28.6403 591.125 29.9109 592.027 30.8143C592.929 31.7177 594.185 32.1694 595.794 32.1694ZM597.178 29.063C596.573 29.063 596.089 28.8649 595.725 28.4686C595.361 28.0724 595.179 27.4675 595.179 26.6539C595.179 26.0199 595.289 25.5127 595.51 25.1323C595.73 24.7519 596.05 24.4693 596.471 24.2844C596.891 24.0995 597.603 23.9859 598.608 23.9436L600.822 23.9119V24.7836C600.822 25.5338 600.663 26.2444 600.346 26.9154C600.028 27.5863 599.59 28.112 599.031 28.4924C598.472 28.8728 597.855 29.063 597.178 29.063ZM613.757 31.8525V23.4365C613.757 21.6719 614.057 20.3405 614.657 19.4424C615.257 18.5443 616.095 18.0952 617.171 18.0952C617.704 18.0952 618.319 18.1745 619.016 18.333V14.6084C618.678 14.4499 618.232 14.3706 617.678 14.3706C617.002 14.3706 616.438 14.4895 615.987 14.7272C615.536 14.965 615.146 15.3295 614.818 15.8208C614.49 16.3122 614.116 17.1601 613.696 18.3647H613.634C613.634 18.0477 613.609 17.4058 613.557 16.439C613.506 15.4722 613.465 14.8937 613.434 14.7035H609.314C609.344 15.1895 609.373 15.7469 609.398 16.3756C609.424 17.0043 609.437 17.7888 609.437 18.7292V31.8525H613.757ZM625.924 32.1377C627.287 32.1377 628.502 31.9581 629.568 31.5989V28.8411C628.943 28.989 628.461 29.063 628.122 29.063C627.477 29.063 627 28.8649 626.692 28.4686C626.385 28.0724 626.231 27.4569 626.231 26.6222V17.7148H629.383V14.7035H626.231V10.6777H623.525L622.172 14.7035H619.85V17.7148H621.957V27.8267C621.957 29.2743 622.3 30.3547 622.987 31.0679C623.674 31.7811 624.653 32.1377 625.924 32.1377ZM636.445 11.6128V8.33203H632.124V11.6128H636.445ZM636.445 31.8525V14.7035H632.124V31.8525H636.445ZM645.167 31.8525V22.6598C645.167 21.2123 645.487 20.0262 646.128 19.1017C646.768 18.1771 647.611 17.7148 648.657 17.7148C650.635 17.7148 651.625 19.2205 651.625 22.2319V31.8525H655.93V20.964C655.93 18.8084 655.459 17.1707 654.515 16.0507C653.572 14.9306 652.219 14.3706 650.456 14.3706C649.236 14.3706 648.186 14.6665 647.304 15.2582C646.422 15.8499 645.689 16.8009 645.105 18.1111H645.044C645.044 17.7835 645.018 17.1839 644.967 16.3122C644.915 15.4405 644.874 14.9042 644.844 14.7035H640.723C640.754 15.1684 640.782 15.694 640.807 16.2805C640.833 16.8669 640.846 17.6197 640.846 18.539V31.8525H645.167ZM667.404 32.1694C670.049 32.1694 672.12 31.3796 673.617 29.8C675.113 28.2203 675.861 26.041 675.861 23.2621C675.861 20.3987 675.146 18.2035 673.716 16.6767C672.286 15.1499 670.213 14.3865 667.497 14.3865C664.842 14.3865 662.776 15.1763 661.3 16.756C659.824 18.3356 659.086 20.5043 659.086 23.2621C659.086 26.0305 659.824 28.2071 661.3 29.792C662.776 31.377 664.811 32.1694 667.404 32.1694ZM667.358 29.1264C666.149 29.1264 665.224 28.6271 664.583 27.6286C663.942 26.6301 663.622 25.1746 663.622 23.2621C663.622 19.3843 664.934 17.4454 667.558 17.4454C668.788 17.4454 669.726 17.905 670.372 18.8243C671.018 19.7436 671.341 21.2228 671.341 23.2621C671.341 27.1716 670.013 29.1264 667.358 29.1264Z" fill="#FAFAFA"/>
<path opacity="0.595853" d="M608.485 45.8366C608.813 45.8366 609.116 45.7825 609.396 45.6744C609.676 45.5664 609.911 45.4222 610.102 45.2421C610.293 45.0619 610.451 44.879 610.578 44.6933C610.704 44.5077 610.808 44.315 610.888 44.1155L609.937 43.8079C609.818 44.1127 609.629 44.3705 609.368 44.5811C609.107 44.7917 608.807 44.897 608.468 44.897C607.947 44.897 607.53 44.6726 607.218 44.2236C606.906 43.7746 606.75 43.1649 606.75 42.3944C606.75 41.635 606.905 41.0295 607.214 40.5777C607.523 40.126 607.941 39.9001 608.468 39.9001C609.022 39.9001 609.471 40.2188 609.816 40.8562L610.727 40.5486C610.539 40.0996 610.252 39.7227 609.868 39.4179C609.483 39.113 609.022 38.9606 608.485 38.9606C607.651 38.9606 606.971 39.2696 606.444 39.8876C605.917 40.5057 605.653 41.3413 605.653 42.3944C605.653 43.4642 605.921 44.3053 606.456 44.9178C606.991 45.5303 607.667 45.8366 608.485 45.8366ZM613.51 45.8366C613.833 45.8366 614.122 45.7811 614.377 45.6703C614.632 45.5594 614.838 45.4167 614.994 45.2421C615.15 45.0675 615.279 44.8652 615.381 44.6351C615.483 44.4051 615.555 44.1792 615.595 43.9575C615.635 43.7358 615.656 43.5141 615.656 43.2924C615.656 42.5773 615.473 41.9731 615.107 41.4798C614.741 40.9865 614.209 40.7398 613.51 40.7398C612.805 40.7398 612.27 40.9865 611.905 41.4798C611.539 41.9731 611.356 42.5773 611.356 43.2924C611.356 43.5252 611.376 43.7538 611.417 43.9783C611.457 44.2028 611.53 44.4301 611.635 44.6601C611.739 44.8901 611.871 45.0897 612.03 45.2587C612.188 45.4278 612.395 45.5664 612.651 45.6744C612.906 45.7825 613.193 45.8366 613.51 45.8366ZM613.51 44.9386C613.214 44.9386 612.956 44.8028 612.736 44.5312C612.515 44.2596 612.405 43.8467 612.405 43.2924C612.405 42.727 612.516 42.3099 612.74 42.041C612.963 41.7722 613.22 41.6378 613.51 41.6378C613.8 41.6378 614.056 41.7722 614.276 42.041C614.497 42.3099 614.607 42.727 614.607 43.2924C614.607 43.8467 614.497 44.2596 614.276 44.5312C614.056 44.8028 613.8 44.9386 613.51 44.9386ZM617.6 45.6869V38.894H616.583V45.6869H617.6ZM620.681 45.8366C621.004 45.8366 621.293 45.7811 621.548 45.6703C621.803 45.5594 622.009 45.4167 622.165 45.2421C622.321 45.0675 622.45 44.8652 622.552 44.6351C622.654 44.4051 622.726 44.1792 622.766 43.9575C622.806 43.7358 622.827 43.5141 622.827 43.2924C622.827 42.5773 622.644 41.9731 622.278 41.4798C621.912 40.9865 621.38 40.7398 620.681 40.7398C619.976 40.7398 619.441 40.9865 619.076 41.4798C618.71 41.9731 618.527 42.5773 618.527 43.2924C618.527 43.5252 618.547 43.7538 618.588 43.9783C618.628 44.2028 618.701 44.4301 618.805 44.6601C618.91 44.8901 619.042 45.0897 619.201 45.2587C619.359 45.4278 619.566 45.5664 619.822 45.6744C620.077 45.7825 620.364 45.8366 620.681 45.8366ZM620.681 44.9386C620.385 44.9386 620.127 44.8028 619.907 44.5312C619.686 44.2596 619.576 43.8467 619.576 43.2924C619.576 42.727 619.687 42.3099 619.911 42.041C620.134 41.7722 620.391 41.6378 620.681 41.6378C620.971 41.6378 621.227 41.7722 621.447 42.041C621.668 42.3099 621.778 42.727 621.778 43.2924C621.778 43.8467 621.668 44.2596 621.447 44.5312C621.227 44.8028 620.971 44.9386 620.681 44.9386ZM624.69 45.6869V43.2425C624.69 42.7769 624.783 42.4041 624.968 42.1242C625.154 41.8443 625.421 41.7043 625.771 41.7043C625.97 41.7043 626.171 41.7376 626.376 41.8041V40.8479C626.22 40.7759 626.018 40.7398 625.771 40.7398C625.507 40.7398 625.28 40.8064 625.089 40.9394C624.898 41.0724 624.752 41.2276 624.65 41.405V40.8895H623.665V45.6869H624.69ZM628.578 45.8366C629.164 45.8366 629.617 45.6994 629.937 45.425C630.257 45.1506 630.417 44.8167 630.417 44.4231C630.417 43.7857 629.938 43.309 628.981 42.993C628.954 42.982 628.911 42.9681 628.852 42.9515C628.626 42.8739 628.451 42.8101 628.328 42.7602C628.204 42.7104 628.084 42.6314 627.969 42.5233C627.853 42.4152 627.795 42.2919 627.795 42.1533C627.795 41.987 627.861 41.8526 627.993 41.75C628.125 41.6475 628.314 41.5962 628.562 41.5962C629.013 41.5962 629.398 41.8207 629.715 42.2697L630.393 41.8457C630.226 41.5242 629.973 41.2595 629.635 41.0516C629.296 40.8438 628.935 40.7398 628.554 40.7398C628.043 40.7398 627.615 40.8673 627.271 41.1223C626.927 41.3773 626.755 41.7154 626.755 42.1367C626.755 42.3528 626.792 42.5427 626.868 42.7062C626.943 42.8697 627.053 43.0055 627.198 43.1136C627.344 43.2217 627.482 43.3076 627.614 43.3714C627.746 43.4351 627.908 43.5002 628.102 43.5667C628.123 43.5723 628.158 43.5834 628.207 43.6C628.476 43.6887 628.677 43.7594 628.812 43.812C628.946 43.8647 629.074 43.9437 629.195 44.049C629.316 44.1543 629.376 44.2762 629.376 44.4148C629.376 44.5866 629.302 44.7238 629.155 44.8264C629.007 44.9289 628.806 44.9802 628.554 44.9802C628.037 44.9802 627.618 44.7363 627.295 44.2485L626.561 44.6892C626.749 45.0439 627.02 45.3239 627.372 45.5289C627.724 45.734 628.126 45.8366 628.578 45.8366ZM635.12 45.8366C635.442 45.8366 635.731 45.7811 635.987 45.6703C636.242 45.5594 636.448 45.4167 636.604 45.2421C636.76 45.0675 636.889 44.8652 636.991 44.6351C637.093 44.4051 637.164 44.1792 637.205 43.9575C637.245 43.7358 637.265 43.5141 637.265 43.2924C637.265 42.5773 637.082 41.9731 636.717 41.4798C636.351 40.9865 635.819 40.7398 635.12 40.7398C634.415 40.7398 633.88 40.9865 633.514 41.4798C633.149 41.9731 632.966 42.5773 632.966 43.2924C632.966 43.5252 632.986 43.7538 633.026 43.9783C633.067 44.2028 633.139 44.4301 633.244 44.6601C633.349 44.8901 633.481 45.0897 633.639 45.2587C633.798 45.4278 634.005 45.5664 634.261 45.6744C634.516 45.7825 634.802 45.8366 635.12 45.8366ZM635.12 44.9386C634.824 44.9386 634.566 44.8028 634.345 44.5312C634.125 44.2596 634.015 43.8467 634.015 43.2924C634.015 42.727 634.126 42.3099 634.349 42.041C634.572 41.7722 634.829 41.6378 635.12 41.6378C635.41 41.6378 635.665 41.7722 635.886 42.041C636.106 42.3099 636.217 42.727 636.217 43.2924C636.217 43.8467 636.106 44.2596 635.886 44.5312C635.665 44.8028 635.41 44.9386 635.12 44.9386ZM639.484 45.6869V41.7875H640.451V40.8895H639.484V40.4488C639.484 40.216 639.523 40.047 639.6 39.9417C639.678 39.8363 639.801 39.7837 639.968 39.7837H640.556V38.894H639.822C639.387 38.894 639.049 39.0174 638.81 39.264C638.571 39.5107 638.451 39.8807 638.451 40.374V40.8895H637.741V41.7875H638.451V45.6869H639.484ZM643.428 47.6491C643.831 47.6491 644.169 47.5493 644.44 47.3498C644.712 47.1503 644.934 46.8066 645.106 46.3188L647.034 40.8895H645.92L645.186 43.3589C645.014 43.9963 644.915 44.3649 644.888 44.4647H644.856C644.786 44.182 644.684 43.8134 644.549 43.3589L643.751 40.8895H642.629L644.372 45.5705L644.218 46.0444C644.127 46.3105 644.005 46.4976 643.851 46.6057C643.698 46.7137 643.501 46.7678 643.259 46.7678H643.113V47.6491H643.428ZM649.534 45.8366C649.857 45.8366 650.146 45.7811 650.401 45.6703C650.657 45.5594 650.862 45.4167 651.018 45.2421C651.174 45.0675 651.303 44.8652 651.406 44.6351C651.508 44.4051 651.579 44.1792 651.619 43.9575C651.66 43.7358 651.68 43.5141 651.68 43.2924C651.68 42.5773 651.497 41.9731 651.131 41.4798C650.766 40.9865 650.233 40.7398 649.534 40.7398C648.83 40.7398 648.295 40.9865 647.929 41.4798C647.563 41.9731 647.38 42.5773 647.38 43.2924C647.38 43.5252 647.401 43.7538 647.441 43.9783C647.481 44.2028 647.554 44.4301 647.659 44.6601C647.764 44.8901 647.895 45.0897 648.054 45.2587C648.213 45.4278 648.42 45.5664 648.675 45.6744C648.931 45.7825 649.217 45.8366 649.534 45.8366ZM649.534 44.9386C649.238 44.9386 648.98 44.8028 648.76 44.5312C648.539 44.2596 648.429 43.8467 648.429 43.2924C648.429 42.727 648.541 42.3099 648.764 42.041C648.987 41.7722 649.244 41.6378 649.534 41.6378C649.825 41.6378 650.08 41.7722 650.3 42.041C650.521 42.3099 650.631 42.727 650.631 43.2924C650.631 43.8467 650.521 44.2596 650.3 44.5312C650.08 44.8028 649.825 44.9386 649.534 44.9386ZM654.027 45.8366C654.344 45.8366 654.609 45.7617 654.822 45.6121C655.034 45.4624 655.178 45.3017 655.253 45.1298H655.261V45.6869H656.245V40.8895H655.229V43.5751C655.229 43.9464 655.143 44.2665 654.971 44.5354C654.799 44.8042 654.56 44.9386 654.253 44.9386C653.742 44.9386 653.487 44.5645 653.487 43.8162V40.8895H652.462V43.9492C652.462 44.3095 652.511 44.6199 652.607 44.8804C652.704 45.1409 652.833 45.3363 652.995 45.4666C653.156 45.5968 653.321 45.6911 653.491 45.7493C653.66 45.8075 653.839 45.8366 654.027 45.8366ZM658.383 45.6869V43.2425C658.383 42.7769 658.476 42.4041 658.661 42.1242C658.847 41.8443 659.114 41.7043 659.464 41.7043C659.663 41.7043 659.864 41.7376 660.069 41.8041V40.8479C659.913 40.7759 659.711 40.7398 659.464 40.7398C659.2 40.7398 658.973 40.8064 658.782 40.9394C658.591 41.0724 658.445 41.2276 658.343 41.405V40.8895H657.359V45.6869H658.383ZM663.723 45.6869V38.894H662.707V45.6869H663.723ZM666.07 40.1745V39.0188H664.973V40.1745H666.07ZM666.03 45.6869V40.8895H665.022V45.6869H666.03ZM668.619 45.6869V41.7875H669.587V40.8895H668.619V40.4488C668.619 40.216 668.658 40.047 668.736 39.9417C668.814 39.8363 668.936 39.7837 669.103 39.7837H669.692V38.894H668.958C668.522 38.894 668.185 39.0174 667.946 39.264C667.706 39.5107 667.587 39.8807 667.587 40.374V40.8895H666.877V41.7875H667.587V45.6869H668.619ZM672.193 45.8366C672.698 45.8366 673.12 45.7174 673.459 45.4791C673.798 45.2407 674.042 44.9442 674.193 44.5894L673.338 44.2901C673.236 44.4952 673.087 44.6629 672.89 44.7931C672.694 44.9234 672.467 44.9885 672.209 44.9885C671.838 44.9885 671.546 44.8569 671.333 44.5936C671.121 44.3303 671.015 44.0157 671.015 43.6499H674.241C674.257 43.5113 674.266 43.37 674.266 43.2258C674.266 42.4886 674.067 41.89 673.669 41.4299C673.271 40.9699 672.765 40.7398 672.152 40.7398C671.528 40.7398 671.011 40.9685 670.599 41.4258C670.188 41.8831 669.982 42.497 669.982 43.2674C669.982 44.049 670.188 44.6726 670.599 45.1382C671.011 45.6038 671.542 45.8366 672.193 45.8366ZM673.225 42.9099H671.031C671.036 42.5552 671.14 42.2461 671.342 41.9828C671.543 41.7196 671.813 41.5879 672.152 41.5879C672.491 41.5879 672.754 41.7168 672.943 41.9745C673.131 42.2323 673.225 42.5441 673.225 42.9099Z" fill="white"/>
<path d="M527.409 12.2112V45.3245C527.409 45.6414 527.251 45.9346 526.993 46.0953C526.735 46.2561 526.416 46.2604 526.155 46.1067L518.552 41.6319C518.283 41.4743 518.117 41.1748 518.117 40.8497V7.73646C518.117 7.41956 518.275 7.12637 518.533 6.96563C518.791 6.80489 519.11 6.80058 519.371 6.95427L526.974 11.429C527.242 11.5867 527.409 11.8861 527.409 12.2112Z" fill="white"/>
<path d="M539.798 12.2122V45.3255C539.798 45.6424 539.639 45.9356 539.382 46.0963C539.124 46.257 538.805 46.2614 538.543 46.1077L530.94 41.6329C530.672 41.4752 530.506 41.1758 530.505 40.8507V7.73743C530.506 7.42054 530.664 7.12735 530.922 6.96661C531.179 6.80587 531.498 6.80155 531.76 6.95525L539.363 11.43C539.631 11.5877 539.798 11.8871 539.798 12.2122Z" fill="white"/>
<path d="M552.187 12.2122V45.3255C552.187 45.6424 552.028 45.9356 551.771 46.0963C551.513 46.257 551.194 46.2614 550.932 46.1077L543.33 41.6329C543.061 41.4752 542.895 41.1758 542.895 40.8507V7.73743C542.895 7.42054 543.053 7.12735 543.311 6.96661C543.569 6.80587 543.887 6.80155 544.149 6.95525L551.752 11.43C552.02 11.5877 552.187 11.8871 552.187 12.2122Z" fill="white"/>
<path fill-rule="evenodd" clip-rule="evenodd" d="M1094.12 20.6816V28.8705L1116.73 9.60787V1.41895L1094.12 20.6816Z" fill="white"/>
<path fill-rule="evenodd" clip-rule="evenodd" d="M1094.12 36.7375V44.9262L1116.73 25.6635V17.4746L1094.12 36.7375Z" fill="white"/>
<path fill-rule="evenodd" clip-rule="evenodd" d="M1104.17 20.6816V28.8705L1126.78 9.60787V1.41895L1104.17 20.6816Z" fill="#F4F4F5"/>
<path fill-rule="evenodd" clip-rule="evenodd" d="M1104.17 36.7375V44.9262L1126.78 25.6635V17.4746L1104.17 36.7375Z" fill="#F4F4F5"/>
<path d="M1153.12 29.345C1154.47 29.345 1155.84 29.2122 1157.24 28.9467C1158.64 28.6811 1160.08 28.2828 1161.56 27.7517V18.6849L1162.15 18.1538L1164.34 17.9642V16.0484H1153.34V17.9642L1156.13 18.1538L1156.72 18.6849V26.6136C1156.26 26.6515 1155.85 26.68 1155.49 26.6989C1155.13 26.7179 1154.86 26.7274 1154.66 26.7274C1151.73 26.7274 1149.44 25.7505 1147.79 23.7968C1146.14 21.8431 1145.31 19.1338 1145.31 15.669C1145.31 12.2927 1146.12 9.64034 1147.73 7.71192C1149.35 5.7835 1151.56 4.81929 1154.39 4.81929C1154.95 4.81929 1155.49 4.86987 1156 4.97104C1156.52 5.0722 1157.02 5.23027 1157.51 5.44524L1158.08 6.14706L1158.8 10.2631H1161.56V3.66224C1160.16 3.2323 1158.8 2.90984 1157.47 2.69487C1156.14 2.4799 1154.85 2.37241 1153.59 2.37241C1149.45 2.37241 1146.12 3.58321 1143.61 6.00479C1141.1 8.42638 1139.85 11.6478 1139.85 15.669C1139.85 19.7282 1141.07 23.0223 1143.53 25.5514C1145.98 28.0804 1149.18 29.345 1153.12 29.345ZM1174.7 29.1743C1177.64 29.1743 1180 28.2891 1181.78 26.5187C1183.56 24.7484 1184.45 22.409 1184.45 19.5006C1184.45 16.4277 1183.6 13.9903 1181.89 12.1884C1180.19 10.3864 1177.89 9.48543 1174.99 9.48543C1172.05 9.48543 1169.68 10.3927 1167.91 12.2073C1166.13 14.022 1165.24 16.4277 1165.24 19.4247C1165.24 22.3458 1166.11 24.701 1167.84 26.4903C1169.58 28.2796 1171.86 29.1743 1174.7 29.1743ZM1174.81 27.1257C1173.45 27.1257 1172.38 26.4365 1171.61 25.0582C1170.85 23.6799 1170.46 21.7514 1170.46 19.2729C1170.46 16.8324 1170.85 14.9356 1171.62 13.5825C1172.4 12.2295 1173.47 11.5529 1174.84 11.5529C1176.23 11.5529 1177.31 12.2421 1178.09 13.6205C1178.87 14.9988 1179.26 16.9209 1179.26 19.3868C1179.26 21.8652 1178.87 23.7747 1178.1 25.1151C1177.33 26.4555 1176.23 27.1257 1174.81 27.1257ZM1192.6 28.8708C1194.08 28.8708 1195.35 28.7981 1196.4 28.6526C1197.45 28.5072 1198.31 28.2828 1199 27.9793C1200.94 27.0815 1202.41 25.8138 1203.43 24.1762C1204.44 22.5386 1204.94 20.5944 1204.94 18.3435C1204.94 15.7512 1204.25 13.6331 1202.87 11.9892C1201.48 10.3453 1199.7 9.52337 1197.53 9.52337C1196.71 9.52337 1195.85 9.66563 1194.95 9.95015C1194.06 10.2347 1193.09 10.6741 1192.06 11.2684V0.172119H1190.26L1184.67 1.99305V3.5105H1187.39V28.7949L1191.57 28.8708H1192.6ZM1193.26 26.8033C1192.94 26.8033 1192.69 26.8001 1192.52 26.7938C1192.35 26.7875 1192.2 26.778 1192.06 26.7653V12.8617C1192.55 12.7606 1192.99 12.6847 1193.38 12.6341C1193.77 12.5835 1194.12 12.5583 1194.44 12.5583C1196.19 12.5583 1197.54 13.1431 1198.49 14.3128C1199.43 15.4825 1199.9 17.1612 1199.9 19.3488C1199.9 21.9032 1199.37 23.7842 1198.29 24.9918C1197.22 26.1994 1195.54 26.8033 1193.26 26.8033ZM1215.69 29.1743C1218.63 29.1743 1220.99 28.2891 1222.77 26.5187C1224.55 24.7484 1225.44 22.409 1225.44 19.5006C1225.44 16.4277 1224.59 13.9903 1222.88 12.1884C1221.18 10.3864 1218.88 9.48543 1215.98 9.48543C1213.04 9.48543 1210.67 10.3927 1208.9 12.2073C1207.12 14.022 1206.23 16.4277 1206.23 19.4247C1206.23 22.3458 1207.1 24.701 1208.83 26.4903C1210.57 28.2796 1212.85 29.1743 1215.69 29.1743ZM1215.8 27.1257C1214.44 27.1257 1213.37 26.4365 1212.6 25.0582C1211.84 23.6799 1211.45 21.7514 1211.45 19.2729C1211.45 16.8324 1211.84 14.9356 1212.61 13.5825C1213.39 12.2295 1214.46 11.5529 1215.83 11.5529C1217.22 11.5529 1218.3 12.2421 1219.08 13.6205C1219.86 14.9988 1220.25 16.9209 1220.25 19.3868C1220.25 21.8652 1219.86 23.7747 1219.09 25.1151C1218.32 26.4555 1217.22 27.1257 1215.8 27.1257ZM1235.8 28.8708V27.1257L1234.14 26.974L1233.62 26.386V13.5636C1234.36 13.3486 1235.03 13.1842 1235.62 13.0704C1236.22 12.9566 1236.74 12.8997 1237.19 12.8997C1238.37 12.8997 1239.23 13.2379 1239.77 13.9145C1240.31 14.591 1240.58 15.65 1240.58 17.0916V26.386L1240.06 26.974L1238.44 27.1257V28.8708H1247.66V27.1257L1245.68 26.974L1245.18 26.386V15.9725C1245.18 13.7975 1244.76 12.1789 1243.91 11.1167C1243.06 10.0545 1241.78 9.52337 1240.06 9.52337C1239.29 9.52337 1238.38 9.71305 1237.34 10.0924C1236.3 10.4718 1235.06 11.0724 1233.62 11.8944V9.59924H1231.8L1226.37 11.4202V12.9756H1228.95V26.386L1228.42 26.974L1226.48 27.1257V28.8708H1235.8ZM1253.31 29.2122C1254.27 29.2122 1255.27 29.0099 1256.31 28.6052C1257.35 28.2006 1258.51 27.5493 1259.79 26.6515L1260.28 28.8708H1267V27.1637L1264.99 26.974L1264.5 26.4239V16.3708C1264.5 13.8291 1263.97 12.0461 1262.91 11.0218C1261.86 9.99757 1260.04 9.48543 1257.45 9.48543C1255.14 9.48543 1253.2 9.93434 1251.62 10.8322C1250.03 11.73 1249.24 12.7859 1249.24 13.9998C1249.24 14.493 1249.38 14.8534 1249.66 15.081C1249.93 15.3086 1250.37 15.4224 1250.97 15.4224H1254.45V11.7806C1254.79 11.7047 1255.11 11.6478 1255.41 11.6099C1255.7 11.5719 1255.98 11.5529 1256.25 11.5529C1257.49 11.5529 1258.4 11.8754 1258.98 12.5203C1259.55 13.1652 1259.84 14.1895 1259.84 15.5931V16.7502C1254.9 17.9009 1251.75 18.9695 1250.4 19.9558C1249.05 20.9421 1248.38 22.3458 1248.38 24.1667C1248.38 25.6462 1248.84 26.857 1249.76 27.7991C1250.68 28.7412 1251.86 29.2122 1253.31 29.2122ZM1256.14 26.2342C1255.28 26.2342 1254.6 25.9718 1254.1 25.447C1253.6 24.9223 1253.35 24.211 1253.35 23.3131C1253.35 22.1624 1253.8 21.2519 1254.71 20.5817C1255.62 19.9115 1257.31 19.2919 1259.79 18.7229V25.0582C1259.05 25.4502 1258.38 25.7442 1257.77 25.9402C1257.16 26.1362 1256.62 26.2342 1256.14 26.2342Z" fill="white"/>
<path d="M1144.3 42.8565V42.4104L1143.58 42.3573L1143.41 42.2033V39.7549L1145.61 36.1327L1146.25 35.9947V35.5592H1144.1V35.9947L1144.74 36.1115L1144.84 36.2655L1143.07 39.1707L1141.45 36.1805L1141.56 36.0584L1142.16 35.9947V35.5592H1139.71V35.9947L1140.35 36.1009L1142.45 39.8983V42.2033L1142.28 42.3573L1141.57 42.4104V42.8565H1144.3ZM1147.51 42.9521C1148.22 42.9521 1148.81 42.6981 1149.27 42.19C1149.73 41.6819 1149.96 41.0295 1149.96 40.2329C1149.96 39.4362 1149.73 38.7838 1149.27 38.2758C1148.81 37.7677 1148.22 37.5136 1147.51 37.5136C1146.78 37.5136 1146.2 37.7668 1145.74 38.2731C1145.29 38.7794 1145.06 39.4327 1145.06 40.2329C1145.06 41.0331 1145.29 41.6863 1145.75 42.1927C1146.21 42.699 1146.79 42.9521 1147.51 42.9521ZM1147.51 42.4848C1147.07 42.4848 1146.72 42.2803 1146.45 41.8713C1146.18 41.4624 1146.05 40.9162 1146.05 40.2329C1146.05 39.5495 1146.18 39.0034 1146.45 38.5944C1146.71 38.1855 1147.07 37.981 1147.51 37.981C1147.95 37.981 1148.3 38.1864 1148.57 38.5971C1148.84 39.0078 1148.97 39.5531 1148.97 40.2329C1148.97 40.9198 1148.84 41.4668 1148.57 41.874C1148.3 42.2812 1147.95 42.4848 1147.51 42.4848ZM1152.44 42.9628C1152.69 42.9628 1152.96 42.9043 1153.24 42.7875C1153.52 42.6707 1153.82 42.4901 1154.15 42.2458V42.8565H1155.71V42.4635L1155.22 42.4104L1155.03 42.2351V37.5136H1154.63L1153.4 37.9173V38.2572H1154.15V41.943C1153.93 42.0528 1153.72 42.1342 1153.52 42.1873C1153.32 42.2405 1153.12 42.267 1152.93 42.267C1152.57 42.267 1152.32 42.1741 1152.15 41.9882C1151.99 41.8023 1151.91 41.5111 1151.91 41.1145V37.5136H1151.5L1150.28 37.9173V38.2572H1151.03V41.3004C1151.03 41.8386 1151.15 42.2502 1151.39 42.5352C1151.63 42.8203 1151.98 42.9628 1152.44 42.9628ZM1158.51 42.8565V42.4635L1157.78 42.4104L1157.6 42.2351V39.1282C1157.82 38.8555 1158.03 38.6546 1158.21 38.5254C1158.4 38.3961 1158.58 38.3315 1158.75 38.3315C1158.86 38.3315 1158.96 38.3537 1159.05 38.3979C1159.14 38.4422 1159.22 38.5068 1159.29 38.5918H1159.62V37.657C1159.51 37.6075 1159.41 37.5712 1159.3 37.5481C1159.2 37.5251 1159.1 37.5136 1158.99 37.5136C1158.92 37.5136 1158.86 37.5154 1158.83 37.5189C1158.79 37.5225 1158.76 37.5296 1158.73 37.5402C1158.52 37.7101 1158.32 37.8827 1158.14 38.058C1157.95 38.2333 1157.77 38.4112 1157.6 38.5918V37.572H1157.2L1155.97 37.9598V38.2997H1156.71V42.2351L1156.53 42.4104L1155.97 42.4635V42.8565H1158.51ZM1166.44 42.8565V42.4104L1165.73 42.3573L1165.56 42.2033V36.0584H1167.17L1167.32 36.223L1167.46 37.2321H1168.04V35.5592H1162.08V37.2321H1162.66L1162.81 36.223L1162.96 36.0584H1164.57V42.2033L1164.39 42.3573L1163.68 42.4104V42.8565H1166.44ZM1169.95 42.8565V42.4635L1169.22 42.4104L1169.04 42.2351V39.1282C1169.26 38.8555 1169.47 38.6546 1169.65 38.5254C1169.84 38.3961 1170.02 38.3315 1170.19 38.3315C1170.3 38.3315 1170.4 38.3537 1170.49 38.3979C1170.58 38.4422 1170.66 38.5068 1170.73 38.5918H1171.06V37.657C1170.95 37.6075 1170.85 37.5712 1170.74 37.5481C1170.64 37.5251 1170.53 37.5136 1170.43 37.5136C1170.36 37.5136 1170.3 37.5154 1170.27 37.5189C1170.23 37.5225 1170.2 37.5296 1170.17 37.5402C1169.96 37.7101 1169.76 37.8827 1169.58 38.058C1169.39 38.2333 1169.21 38.4112 1169.04 38.5918V37.572H1168.64L1167.41 37.9598V38.2997H1168.15V42.2351L1167.97 42.4104L1167.41 42.4635V42.8565H1169.95ZM1173.21 42.9628C1173.46 42.9628 1173.73 42.9043 1174.01 42.7875C1174.29 42.6707 1174.59 42.4901 1174.92 42.2458V42.8565H1176.48V42.4635L1175.99 42.4104L1175.8 42.2351V37.5136H1175.39L1174.17 37.9173V38.2572H1174.92V41.943C1174.7 42.0528 1174.49 42.1342 1174.29 42.1873C1174.09 42.2405 1173.89 42.267 1173.69 42.267C1173.34 42.267 1173.09 42.1741 1172.92 41.9882C1172.76 41.8023 1172.67 41.5111 1172.67 41.1145V37.5136H1172.27L1171.05 37.9173V38.2572H1171.8V41.3004C1171.8 41.8386 1171.92 42.2502 1172.16 42.5352C1172.4 42.8203 1172.75 42.9628 1173.21 42.9628ZM1178.24 42.9521C1178.86 42.9521 1179.34 42.8079 1179.69 42.5193C1180.04 42.2307 1180.21 41.8315 1180.21 41.3216C1180.21 41.1269 1180.18 40.949 1180.11 40.7879C1180.04 40.6268 1179.94 40.4931 1179.81 40.3869C1179.63 40.2347 1179.34 40.0647 1178.94 39.877C1178.83 39.8239 1178.75 39.7832 1178.69 39.7549C1178.34 39.5814 1178.1 39.4238 1177.98 39.2822C1177.86 39.1406 1177.79 38.9689 1177.79 38.767C1177.79 38.5192 1177.87 38.3262 1178.03 38.1881C1178.18 38.05 1178.39 37.981 1178.67 37.981C1178.8 37.981 1178.92 38.0005 1179.05 38.0394C1179.18 38.0784 1179.31 38.1368 1179.45 38.2147L1179.54 38.9848H1180.06V37.7526C1179.88 37.6747 1179.69 37.6154 1179.48 37.5747C1179.28 37.534 1179.06 37.5136 1178.82 37.5136C1178.22 37.5136 1177.76 37.6464 1177.44 37.912C1177.11 38.1775 1176.95 38.5528 1176.95 39.0379C1176.95 39.3566 1177.04 39.6239 1177.23 39.8399C1177.43 40.0558 1177.79 40.286 1178.31 40.5303C1178.78 40.7498 1179.08 40.9313 1179.2 41.0747C1179.32 41.2181 1179.39 41.3995 1179.39 41.6191C1179.39 41.8811 1179.3 42.0926 1179.12 42.2537C1178.94 42.4148 1178.7 42.4954 1178.4 42.4954C1178.25 42.4954 1178.1 42.4741 1177.95 42.4317C1177.8 42.3892 1177.65 42.3237 1177.5 42.2351L1177.37 41.311H1176.87V42.7238C1177.06 42.8017 1177.28 42.8592 1177.51 42.8964C1177.74 42.9336 1177.98 42.9521 1178.24 42.9521ZM1182.32 42.8884C1182.53 42.8884 1182.76 42.868 1182.99 42.8273C1183.22 42.7866 1183.46 42.7273 1183.7 42.6494V42.2458C1183.57 42.2776 1183.45 42.3007 1183.32 42.3148C1183.2 42.329 1183.08 42.3361 1182.97 42.3361C1182.64 42.3361 1182.41 42.2555 1182.29 42.0944C1182.16 41.9333 1182.09 41.6173 1182.09 41.1464V38.2784H1183.7V37.7686H1182.09V36.6107H1181.7L1181.25 37.6252L1180.55 37.9385V38.2784H1181.22V41.789C1181.22 42.2068 1181.3 42.4945 1181.46 42.6521C1181.63 42.8096 1181.91 42.8884 1182.32 42.8884ZM1186.21 42.9521C1186.55 42.9521 1186.88 42.8973 1187.22 42.7875C1187.56 42.6777 1187.88 42.5166 1188.19 42.3042V41.704C1187.88 41.92 1187.59 42.0794 1187.32 42.182C1187.05 42.2847 1186.79 42.3361 1186.53 42.3361C1185.99 42.3361 1185.56 42.1369 1185.24 41.7386C1184.92 41.3402 1184.76 40.7994 1184.76 40.116V39.9939H1188.18C1188.19 39.9514 1188.19 39.9071 1188.19 39.8611C1188.19 39.8151 1188.19 39.7478 1188.19 39.6593C1188.19 38.9972 1188.02 38.474 1187.68 38.0899C1187.34 37.7057 1186.88 37.5136 1186.29 37.5136C1185.58 37.5136 1184.99 37.7712 1184.54 38.2864C1184.08 38.8016 1183.86 39.4663 1183.86 40.2807C1183.86 41.0738 1184.07 41.7173 1184.51 42.2112C1184.94 42.7052 1185.51 42.9521 1186.21 42.9521ZM1187.25 39.5371H1184.81C1184.84 39.0945 1184.99 38.729 1185.24 38.4404C1185.5 38.1518 1185.8 38.0075 1186.15 38.0075C1186.51 38.0075 1186.78 38.1244 1186.97 38.3581C1187.16 38.5918 1187.25 38.9281 1187.25 39.3672V39.5371ZM1190.71 42.9521C1191 42.9521 1191.27 42.899 1191.53 42.7928C1191.79 42.6866 1192.06 42.5202 1192.34 42.2936V42.8565H1193.9V42.4635L1193.39 42.4104L1193.21 42.2351V34.8528H1192.81L1191.53 35.2405V35.5804H1192.34V37.6252C1192.17 37.5862 1192 37.5561 1191.85 37.5349C1191.69 37.5136 1191.54 37.503 1191.4 37.503C1190.59 37.503 1189.94 37.7712 1189.43 38.3076C1188.93 38.844 1188.68 39.5442 1188.68 40.4081C1188.68 41.1517 1188.87 41.7616 1189.25 42.2378C1189.63 42.714 1190.12 42.9521 1190.71 42.9521ZM1191.19 42.267C1190.71 42.267 1190.32 42.0829 1190.03 41.7147C1189.75 41.3464 1189.6 40.849 1189.6 40.2223C1189.6 39.5495 1189.77 39.0078 1190.1 38.5971C1190.43 38.1864 1190.87 37.981 1191.41 37.981C1191.53 37.981 1191.66 37.996 1191.82 38.0261C1191.97 38.0562 1192.14 38.0996 1192.34 38.1563V41.8899C1192.14 42.0174 1191.94 42.1121 1191.75 42.1741C1191.56 42.236 1191.37 42.267 1191.19 42.267ZM1200.56 42.9893C1200.91 42.9893 1201.27 42.9566 1201.63 42.8911C1201.99 42.8256 1202.34 42.7308 1202.69 42.6069V40.8861H1202.12L1201.86 42.0971L1201.7 42.267C1201.55 42.3166 1201.39 42.3529 1201.24 42.3759C1201.09 42.3989 1200.93 42.4104 1200.78 42.4104C1199.92 42.4104 1199.25 42.1192 1198.76 41.5367C1198.27 40.9543 1198.03 40.1514 1198.03 39.1282C1198.03 38.1651 1198.26 37.4039 1198.73 36.8444C1199.19 36.285 1199.83 36.0053 1200.62 36.0053C1200.82 36.0053 1201.02 36.0283 1201.21 36.0743C1201.4 36.1204 1201.6 36.1912 1201.8 36.2868L1201.94 36.4833L1202.1 37.4711H1202.69V35.7982C1202.31 35.6742 1201.95 35.5813 1201.6 35.5193C1201.25 35.4574 1200.92 35.4264 1200.6 35.4264C1199.5 35.4264 1198.62 35.7725 1197.95 36.4647C1197.27 37.1569 1196.94 38.0695 1196.94 39.2025C1196.94 39.9107 1197.1 40.5631 1197.43 41.1597C1197.75 41.7563 1198.2 42.221 1198.76 42.5538C1199.01 42.6954 1199.29 42.8034 1199.59 42.8778C1199.89 42.9521 1200.21 42.9893 1200.56 42.9893ZM1205.24 42.9628C1205.49 42.9628 1205.75 42.9043 1206.03 42.7875C1206.31 42.6707 1206.62 42.4901 1206.95 42.2458V42.8565H1208.51V42.4635L1208.02 42.4104L1207.83 42.2351V37.5136H1207.42L1206.2 37.9173V38.2572H1206.95V41.943C1206.73 42.0528 1206.52 42.1342 1206.32 42.1873C1206.12 42.2405 1205.92 42.267 1205.72 42.267C1205.37 42.267 1205.11 42.1741 1204.95 41.9882C1204.79 41.8023 1204.7 41.5111 1204.7 41.1145V37.5136H1204.3L1203.07 37.9173V38.2572H1203.83V41.3004C1203.83 41.8386 1203.95 42.2502 1204.19 42.5352C1204.43 42.8203 1204.78 42.9628 1205.24 42.9628ZM1211.31 42.8565V42.4635L1210.58 42.4104L1210.39 42.2351V39.1282C1210.62 38.8555 1210.82 38.6546 1211.01 38.5254C1211.2 38.3961 1211.38 38.3315 1211.54 38.3315C1211.65 38.3315 1211.75 38.3537 1211.85 38.3979C1211.94 38.4422 1212.02 38.5068 1212.08 38.5918H1212.42V37.657C1212.31 37.6075 1212.2 37.5712 1212.1 37.5481C1212 37.5251 1211.89 37.5136 1211.79 37.5136C1211.71 37.5136 1211.66 37.5154 1211.62 37.5189C1211.59 37.5225 1211.55 37.5296 1211.52 37.5402C1211.32 37.7101 1211.12 37.8827 1210.93 38.058C1210.75 38.2333 1210.57 38.4112 1210.39 38.5918V37.572H1209.99L1208.77 37.9598V38.2997H1209.51V42.2351L1209.33 42.4104L1208.77 42.4635V42.8565H1211.31ZM1214.99 42.8565V42.4635L1214.25 42.4104L1214.07 42.2351V39.1282C1214.3 38.8555 1214.5 38.6546 1214.69 38.5254C1214.88 38.3961 1215.05 38.3315 1215.22 38.3315C1215.33 38.3315 1215.43 38.3537 1215.52 38.3979C1215.61 38.4422 1215.69 38.5068 1215.76 38.5918H1216.1V37.657C1215.99 37.6075 1215.88 37.5712 1215.78 37.5481C1215.67 37.5251 1215.57 37.5136 1215.46 37.5136C1215.39 37.5136 1215.34 37.5154 1215.3 37.5189C1215.27 37.5225 1215.23 37.5296 1215.2 37.5402C1214.99 37.7101 1214.8 37.8827 1214.61 38.058C1214.42 38.2333 1214.24 38.4112 1214.07 38.5918V37.572H1213.67L1212.44 37.9598V38.2997H1213.19V42.2351L1213.01 42.4104L1212.44 42.4635V42.8565H1214.99ZM1217.43 36.4089C1217.6 36.4089 1217.75 36.3487 1217.87 36.2283C1217.98 36.108 1218.04 35.961 1218.04 35.7875C1218.04 35.614 1217.98 35.4653 1217.87 35.3414C1217.75 35.2175 1217.6 35.1555 1217.43 35.1555C1217.26 35.1555 1217.12 35.2166 1217 35.3387C1216.88 35.4609 1216.82 35.6105 1216.82 35.7875C1216.82 35.961 1216.88 36.108 1217 36.2283C1217.12 36.3487 1217.26 36.4089 1217.43 36.4089ZM1218.55 42.8565V42.4635L1217.98 42.4104L1217.8 42.2351V37.572H1217.39L1216.18 37.9598V38.2997H1216.92V42.2351L1216.74 42.4104L1216.18 42.4635V42.8565H1218.55ZM1221.15 42.9521C1221.49 42.9521 1221.83 42.8973 1222.16 42.7875C1222.5 42.6777 1222.83 42.5166 1223.14 42.3042V41.704C1222.82 41.92 1222.53 42.0794 1222.26 42.182C1221.99 42.2847 1221.73 42.3361 1221.48 42.3361C1220.94 42.3361 1220.51 42.1369 1220.19 41.7386C1219.87 41.3402 1219.71 40.7994 1219.71 40.116V39.9939H1223.12C1223.13 39.9514 1223.13 39.9071 1223.14 39.8611C1223.14 39.8151 1223.14 39.7478 1223.14 39.6593C1223.14 38.9972 1222.97 38.474 1222.63 38.0899C1222.28 37.7057 1221.82 37.5136 1221.24 37.5136C1220.52 37.5136 1219.94 37.7712 1219.48 38.2864C1219.03 38.8016 1218.8 39.4663 1218.8 40.2807C1218.8 41.0738 1219.02 41.7173 1219.45 42.2112C1219.89 42.7052 1220.45 42.9521 1221.15 42.9521ZM1222.2 39.5371H1219.76C1219.79 39.0945 1219.93 38.729 1220.19 38.4404C1220.44 38.1518 1220.75 38.0075 1221.1 38.0075C1221.46 38.0075 1221.73 38.1244 1221.91 38.3581C1222.1 38.5918 1222.2 38.9281 1222.2 39.3672V39.5371ZM1226.1 42.8565V42.4635L1225.36 42.4104L1225.18 42.2351V39.1282C1225.41 38.8555 1225.61 38.6546 1225.8 38.5254C1225.99 38.3961 1226.16 38.3315 1226.33 38.3315C1226.44 38.3315 1226.54 38.3537 1226.63 38.3979C1226.72 38.4422 1226.8 38.5068 1226.87 38.5918H1227.21V37.657C1227.1 37.6075 1226.99 37.5712 1226.89 37.5481C1226.78 37.5251 1226.68 37.5136 1226.57 37.5136C1226.5 37.5136 1226.45 37.5154 1226.41 37.5189C1226.38 37.5225 1226.34 37.5296 1226.31 37.5402C1226.1 37.7101 1225.91 37.8827 1225.72 38.058C1225.53 38.2333 1225.35 38.4112 1225.18 38.5918V37.572H1224.78L1223.55 37.9598V38.2997H1224.3V42.2351L1224.12 42.4104L1223.55 42.4635V42.8565H1226.1Z" fill="#FAFAFA"/>
</svg>
