<svg width="252" height="41" viewBox="0 0 252 41" fill="none" xmlns="http://www.w3.org/2000/svg">
<path d="M250.995 17.2459C251.755 16.9172 252.105 16.0344 251.777 15.2739L246.421 2.88159C246.093 2.12114 245.21 1.77108 244.449 2.09971C243.689 2.42835 243.339 3.31123 243.667 4.07168L248.428 15.0871L237.412 19.8474C236.652 20.1761 236.302 21.059 236.631 21.8194C236.959 22.5799 237.842 22.9299 238.603 22.6013L250.995 17.2459ZM1.40927 40.1138C25.4395 29.4282 66.7621 15.4428 112.511 8.27645C158.284 1.10636 208.304 0.791839 249.847 17.2633L250.953 14.4746C208.692 -2.28172 158.053 -1.89397 112.047 5.31259C66.0176 12.5229 24.442 26.5885 0.190335 37.3726L1.40927 40.1138Z" fill="#5BC7A7"/>
</svg>
