<svg width="252" height="49" viewBox="0 0 252 49" fill="none" xmlns="http://www.w3.org/2000/svg">
<path d="M251.322 29.7471C251.713 29.0168 251.438 28.1077 250.708 27.7165L238.808 21.3422C238.077 20.9511 237.168 21.2259 236.777 21.9562C236.386 22.6865 236.661 23.5956 237.391 23.9867L247.969 29.6528L242.303 40.2309C241.912 40.9611 242.187 41.8702 242.917 42.2614C243.647 42.6526 244.556 42.3777 244.948 41.6474L251.322 29.7471ZM0.499604 2.54153C25.7467 29.7743 110.748 72.7136 250.434 30.4746L249.565 27.603C110.713 69.5902 26.9949 26.7081 2.69962 0.501931L0.499604 2.54153Z" fill="#5BC7A7"/>
</svg>
